<svg width="121" height="35" viewBox="0 0 121 35" fill="none" xmlns="http://www.w3.org/2000/svg">
    <path fill-rule="evenodd" clip-rule="evenodd" d="M17.5 33.6875C26.4401 33.6875 33.6875 26.4401 33.6875 17.5C33.6875 8.55989 26.4401 1.3125 17.5 1.3125C8.55989 1.3125 1.3125 8.55989 1.3125 17.5C1.3125 26.4401 8.55989 33.6875 17.5 33.6875ZM35 17.5C35 27.165 27.165 35 17.5 35C7.83502 35 0 27.165 0 17.5C0 7.83502 7.83502 0 17.5 0C27.165 0 35 7.83502 35 17.5Z" fill="white"/>
    <path d="M4.45093 22.168L15.0368 3.87772L15.6804 3.7666L24.2468 18.5455L19.6973 18.6344L15.3253 11.0783L6.67019 26.1683C5.7381 24.9905 5.00574 23.6348 4.45093 22.168Z" fill="white" fill-opacity="0.7"/>
    <path d="M24.1577 26.4578L26.4214 22.5464L28.4187 26.0133C27.5754 27.0801 26.5989 28.0135 25.4893 28.8358L24.1577 26.4578Z" fill="white" fill-opacity="0.7"/>
    <path d="M15.6583 3.76705C17.234 3.58926 18.7653 3.61148 20.2078 3.90039L30.6162 21.9462C29.9948 23.5908 29.1958 25.0353 28.4191 25.991L26.4218 22.5463H13.3059L15.3698 18.6793L24.2025 18.546L15.6583 3.76705Z" fill="white"/>
    <path d="M15.325 11.0781L6.66992 26.1682C7.53543 27.1682 8.46752 28.1017 9.55496 28.8573L10.9309 26.4349L24.1577 26.4571L26.4436 22.5679H13.2833L17.5221 14.9006L15.325 11.0781Z" fill="white" fill-opacity="0.4"/>
    <path d="M43.0334 23.0139H41L47.4284 7.86963H49.5994L56.0596 23.0139H53.8885L51.9293 18.2482H46.4682L47.0083 16.6597H51.2727L48.4451 9.79708L43.0334 23.0139Z" fill="white"/>
    <path d="M66.2793 22.6962C65.3615 22.908 64.373 23.0139 63.314 23.0139C59.3603 23.0139 57.3834 21.09 57.3834 17.2421C57.3834 13.6767 59.3603 11.894 63.314 11.894C64.373 11.894 65.3615 11.9999 66.2793 12.2117V13.8003C65.3615 13.5885 64.3377 13.4825 63.2081 13.4825C60.6311 13.4825 59.3426 14.7357 59.3426 17.2421C59.3426 20.031 60.6311 21.4254 63.2081 21.4254C64.3377 21.4254 65.3615 21.3195 66.2793 21.1076V22.6962Z" fill="white"/>
    <path d="M68.7787 23.0139V11.894H70.1025L70.4519 13.3131C71.4263 12.367 72.5983 11.894 73.968 11.894V13.5249C72.6406 13.5249 71.5639 13.9944 70.7379 14.9334V23.0139H68.7787Z" fill="white"/>
    <path d="M77.3675 17.4116C77.3675 20.0874 78.4795 21.4254 80.7035 21.4254C82.9275 21.4254 84.0395 20.0874 84.0395 17.4116C84.0395 14.7922 82.9275 13.4825 80.7035 13.4825C78.4795 13.4825 77.3675 14.7922 77.3675 17.4116ZM75.4083 17.454C75.4083 13.7473 77.1733 11.894 80.7035 11.894C84.2336 11.894 85.9987 13.7473 85.9987 17.454C85.9987 21.1535 84.2336 23.0033 80.7035 23.0033C77.1875 23.0033 75.4224 21.1535 75.4083 17.454Z" fill="white"/>
    <path d="M90.6055 20.7476C91.3751 21.1288 92.2329 21.3195 93.179 21.3195C95.4877 21.3195 96.642 19.9321 96.642 17.1574C96.642 14.7357 95.4948 13.5249 93.2002 13.5249C92.2117 13.5249 91.3468 13.6096 90.6055 13.7791V20.7476ZM88.6463 12.3494C90.1219 12.0458 91.6469 11.894 93.2213 11.894C96.7868 11.894 98.5695 13.6555 98.5695 17.1786C98.5695 21.0688 96.7762 23.0139 93.1896 23.0139C92.3 23.0139 91.4386 22.8374 90.6055 22.4844V27.0383H88.6463V12.3494Z" fill="white"/>
    <path d="M103.293 7.86963V23.0139H101.334V7.86963H103.293Z" fill="white"/>
    <path d="M108.757 11.894V23.0139H106.798V11.894H108.757ZM108.757 7.86963V9.72295H106.798V7.86963H108.757Z" fill="white"/>
    <path d="M111.627 19.6568C111.627 17.3763 113.131 16.2361 116.139 16.2361C117.106 16.2361 118.074 16.3067 119.041 16.4479V15.3994C119.041 14.1215 118.042 13.4825 116.044 13.4825C114.9 13.4825 113.728 13.6591 112.528 14.0121V12.4235C113.728 12.0705 114.9 11.894 116.044 11.894C119.348 11.894 121 13.0448 121 15.3465V23.0139H119.899L119.221 21.9125C118.112 22.6468 116.905 23.0139 115.599 23.0139C112.951 23.0139 111.627 21.8949 111.627 19.6568ZM116.139 17.8246C114.437 17.8246 113.587 18.4247 113.587 19.625C113.587 20.8252 114.257 21.4254 115.599 21.4254C116.954 21.4254 118.102 21.0653 119.041 20.3451V18.0364C118.074 17.8952 117.106 17.8246 116.139 17.8246Z" fill="white"/>
</svg>
