<svg width="40" height="40" viewBox="0 0 40 40" fill="none" xmlns="http://www.w3.org/2000/svg">
    <path fill-rule="evenodd" clip-rule="evenodd" d="M11.1133 8.05334C11.1133 7.9275 11.2153 7.82548 11.3411 7.82548H28.6263C28.7521 7.82548 28.8542 7.9275 28.8542 8.05334V13.75H31.263V8.05334C31.263 6.59713 30.0825 5.41663 28.6263 5.41663H11.3411C9.88493 5.41663 8.70443 6.59712 8.70443 8.05334V11.2733H8.03693C6.50633 11.2733 5.35156 12.5528 5.35156 14.0227L5.35157 31.834C5.35157 33.3039 6.50633 34.5834 8.03693 34.5834H31.8329C33.3635 34.5834 34.5182 33.3039 34.5182 31.834V16.5156C34.5182 15.0457 33.3635 13.7663 31.8329 13.7663H21.0546C20.9296 12.4071 19.8218 11.2733 18.381 11.2733H11.1133V8.05334ZM7.76042 14.0227C7.76042 13.7861 7.93172 13.6822 8.03693 13.6822H18.381C18.4862 13.6822 18.6575 13.7861 18.6575 14.0227V16.1751H31.8329C31.9381 16.1751 32.1094 16.279 32.1094 16.5156V31.834C32.1094 32.0706 31.9381 32.1745 31.8329 32.1745H8.03693C7.93173 32.1745 7.76042 32.0706 7.76042 31.834L7.76042 14.0227Z" fill="#262626"/>
</svg>
