<svg width="40" height="40" viewBox="0 0 40 40" fill="none" xmlns="http://www.w3.org/2000/svg">
    <path d="M21.9531 26.7667C22.5914 26.3137 23.0078 25.5688 23.0078 24.7266C23.0078 23.3458 21.8885 22.2266 20.5078 22.2266C19.1271 22.2266 18.0078 23.3458 18.0078 24.7266C18.0078 25.5688 18.4243 26.3137 19.0625 26.7667V28.0859C19.0625 28.8842 19.7096 29.5312 20.5078 29.5312C21.306 29.5312 21.9531 28.8842 21.9531 28.0859V26.7667Z" fill="#262626"/>
    <path fill-rule="evenodd" clip-rule="evenodd" d="M12.0312 16.0938V11.5039C12.0312 6.83322 15.8176 3.04688 20.4883 3.04688C25.159 3.04688 28.9453 6.83322 28.9453 11.5039V16.0938H29.9609C32.1614 16.0938 33.9453 17.8776 33.9453 20.0781V31.7578C33.9453 33.9583 32.1614 35.7422 29.9609 35.7422H11.0156C8.81512 35.7422 7.03125 33.9583 7.03125 31.7578V20.0781C7.03125 17.8776 8.81512 16.0938 11.0156 16.0938H12.0312ZM14.9219 11.5039C14.9219 8.42967 17.414 5.9375 20.4883 5.9375C23.5625 5.9375 26.0547 8.42967 26.0547 11.5039V16.0938H14.9219V11.5039ZM9.92188 20.0781C9.92188 19.4741 10.4116 18.9844 11.0156 18.9844H29.9609C30.565 18.9844 31.0547 19.4741 31.0547 20.0781V31.7578C31.0547 32.3619 30.565 32.8516 29.9609 32.8516H11.0156C10.4116 32.8516 9.92188 32.3619 9.92188 31.7578V20.0781Z" fill="#262626"/>
</svg>
