<svg width="175" height="48" viewBox="0 0 175 48" fill="none" xmlns="http://www.w3.org/2000/svg">
    <rect width="175" height="48" rx="23" fill="white"/>
    <path d="M79.5518 26.6602H74.1904L72.9863 30H71.2461L76.1328 17.2031H77.6094L82.5049 30H80.7734L79.5518 26.6602ZM74.7002 25.2715H79.0508L76.8711 19.2861L74.7002 25.2715ZM92.0059 25.3506C92.0059 26.7979 91.6748 27.9639 91.0127 28.8486C90.3506 29.7334 89.4541 30.1758 88.3232 30.1758C87.1689 30.1758 86.2607 29.8096 85.5986 29.0771V33.6562H83.9727V20.4902H85.458L85.5371 21.5449C86.1992 20.7246 87.1191 20.3145 88.2969 20.3145C89.4395 20.3145 90.3418 20.7451 91.0039 21.6064C91.6719 22.4678 92.0059 23.666 92.0059 25.2012V25.3506ZM90.3799 25.166C90.3799 24.0938 90.1514 23.2471 89.6943 22.626C89.2373 22.0049 88.6104 21.6943 87.8135 21.6943C86.8291 21.6943 86.0908 22.1309 85.5986 23.0039V27.5479C86.085 28.415 86.8291 28.8486 87.8311 28.8486C88.6104 28.8486 89.2285 28.541 89.6855 27.9258C90.1484 27.3047 90.3799 26.3848 90.3799 25.166ZM102.113 25.3506C102.113 26.7979 101.782 27.9639 101.12 28.8486C100.458 29.7334 99.5615 30.1758 98.4307 30.1758C97.2764 30.1758 96.3682 29.8096 95.7061 29.0771V33.6562H94.0801V20.4902H95.5654L95.6445 21.5449C96.3066 20.7246 97.2266 20.3145 98.4043 20.3145C99.5469 20.3145 100.449 20.7451 101.111 21.6064C101.779 22.4678 102.113 23.666 102.113 25.2012V25.3506ZM100.487 25.166C100.487 24.0938 100.259 23.2471 99.8018 22.626C99.3447 22.0049 98.7178 21.6943 97.9209 21.6943C96.9365 21.6943 96.1982 22.1309 95.7061 23.0039V27.5479C96.1924 28.415 96.9365 28.8486 97.9385 28.8486C98.7178 28.8486 99.3359 28.541 99.793 27.9258C100.256 27.3047 100.487 26.3848 100.487 25.166ZM112.678 24.2959C111.23 23.8799 110.176 23.3701 109.514 22.7666C108.857 22.1572 108.529 21.4072 108.529 20.5166C108.529 19.5088 108.931 18.6768 109.733 18.0205C110.542 17.3584 111.591 17.0273 112.88 17.0273C113.759 17.0273 114.541 17.1973 115.227 17.5371C115.918 17.877 116.451 18.3457 116.826 18.9434C117.207 19.541 117.397 20.1943 117.397 20.9033H115.701C115.701 20.1299 115.455 19.5234 114.963 19.084C114.471 18.6387 113.776 18.416 112.88 18.416C112.048 18.416 111.397 18.6006 110.929 18.9697C110.466 19.333 110.234 19.8398 110.234 20.4902C110.234 21.0117 110.454 21.4541 110.894 21.8174C111.339 22.1748 112.092 22.5029 113.152 22.8018C114.219 23.1006 115.051 23.4316 115.648 23.7949C116.252 24.1523 116.697 24.5713 116.984 25.0518C117.277 25.5322 117.424 26.0977 117.424 26.748C117.424 27.7852 117.02 28.6172 116.211 29.2441C115.402 29.8652 114.321 30.1758 112.968 30.1758C112.089 30.1758 111.269 30.0088 110.507 29.6748C109.745 29.335 109.156 28.8721 108.74 28.2861C108.33 27.7002 108.125 27.0352 108.125 26.291H109.821C109.821 27.0645 110.105 27.6768 110.674 28.1279C111.248 28.5732 112.013 28.7959 112.968 28.7959C113.858 28.7959 114.541 28.6143 115.016 28.251C115.49 27.8877 115.728 27.3926 115.728 26.7656C115.728 26.1387 115.508 25.6553 115.068 25.3154C114.629 24.9697 113.832 24.6299 112.678 24.2959ZM121.546 18.1875V20.4902H123.321V21.7471H121.546V27.6445C121.546 28.0254 121.625 28.3125 121.783 28.5059C121.941 28.6934 122.211 28.7871 122.592 28.7871C122.779 28.7871 123.037 28.752 123.365 28.6816V30C122.938 30.1172 122.521 30.1758 122.117 30.1758C121.391 30.1758 120.843 29.9561 120.474 29.5166C120.104 29.0771 119.92 28.4531 119.92 27.6445V21.7471H118.188V20.4902H119.92V18.1875H121.546ZM124.622 25.1572C124.622 24.2256 124.804 23.3877 125.167 22.6436C125.536 21.8994 126.046 21.3252 126.696 20.9209C127.353 20.5166 128.1 20.3145 128.938 20.3145C130.232 20.3145 131.278 20.7627 132.075 21.6592C132.878 22.5557 133.279 23.748 133.279 25.2363V25.3506C133.279 26.2764 133.101 27.1084 132.743 27.8467C132.392 28.5791 131.885 29.1504 131.223 29.5605C130.566 29.9707 129.811 30.1758 128.955 30.1758C127.666 30.1758 126.62 29.7275 125.817 28.8311C125.021 27.9346 124.622 26.748 124.622 25.2715V25.1572ZM126.257 25.3506C126.257 26.4053 126.5 27.252 126.986 27.8906C127.479 28.5293 128.135 28.8486 128.955 28.8486C129.781 28.8486 130.438 28.5264 130.924 27.8818C131.41 27.2314 131.653 26.3232 131.653 25.1572C131.653 24.1143 131.404 23.2705 130.906 22.626C130.414 21.9756 129.758 21.6504 128.938 21.6504C128.135 21.6504 127.487 21.9697 126.995 22.6084C126.503 23.2471 126.257 24.1611 126.257 25.3506ZM139.915 21.9492C139.669 21.9082 139.402 21.8877 139.115 21.8877C138.049 21.8877 137.325 22.3418 136.944 23.25V30H135.318V20.4902H136.9L136.927 21.5889C137.46 20.7393 138.216 20.3145 139.194 20.3145C139.511 20.3145 139.751 20.3555 139.915 20.4375V21.9492ZM145.188 30.1758C143.899 30.1758 142.851 29.7539 142.042 28.9102C141.233 28.0605 140.829 26.9268 140.829 25.5088V25.21C140.829 24.2666 141.008 23.4258 141.365 22.6875C141.729 21.9434 142.232 21.3633 142.877 20.9473C143.527 20.5254 144.23 20.3145 144.986 20.3145C146.223 20.3145 147.184 20.7217 147.869 21.5361C148.555 22.3506 148.897 23.5166 148.897 25.0342V25.7109H142.455C142.479 26.6484 142.751 27.4072 143.272 27.9873C143.8 28.5615 144.468 28.8486 145.276 28.8486C145.851 28.8486 146.337 28.7314 146.735 28.4971C147.134 28.2627 147.482 27.9521 147.781 27.5654L148.774 28.3389C147.978 29.5635 146.782 30.1758 145.188 30.1758ZM144.986 21.6504C144.33 21.6504 143.779 21.8906 143.334 22.3711C142.889 22.8457 142.613 23.5137 142.508 24.375H147.271V24.252C147.225 23.4258 147.002 22.7871 146.604 22.3359C146.205 21.8789 145.666 21.6504 144.986 21.6504Z" fill="black"/>
    <path d="M31.475 11H45.525C48.5488 11 51 13.4512 51 16.475V30.525C51 33.5488 48.5488 36 45.525 36H31.475C28.4512 36 26 33.5488 26 30.525V16.475C26 13.4512 28.4512 11 31.475 11Z" fill="url(#paint0_linear)"/>
    <path d="M34.012 29.1455L34.0143 29.1463L33.1595 30.6268C32.8475 31.1672 32.1565 31.3524 31.6161 31.0403C31.0757 30.7283 30.8905 30.0373 31.2025 29.4969L31.8322 28.4063L31.8926 28.3016C32.0005 28.1465 32.2668 27.8787 32.7996 27.9291C32.7996 27.9291 34.0532 28.0651 34.1439 28.7167C34.1439 28.7167 34.1562 28.9311 34.012 29.1455ZM46.1353 25.3643H43.4699C43.2883 25.3521 43.2091 25.2872 43.1779 25.2495L43.1759 25.2461L40.3227 20.3041L40.319 20.3066L40.1479 20.0612C39.8674 19.6323 39.4221 20.7292 39.4221 20.7292C38.8904 21.9515 39.4976 23.341 39.7092 23.761L43.6723 30.6253C43.9842 31.1656 44.6752 31.3509 45.2158 31.0388C45.7561 30.7268 45.9414 30.0358 45.6292 29.4953L44.6383 27.7789C44.6191 27.7373 44.5857 27.6244 44.7889 27.6239H46.1353C46.7593 27.6239 47.2652 27.1181 47.2652 26.4941C47.2652 25.87 46.7593 25.3642 46.1353 25.3642V25.3643ZM40.9582 26.9002C40.9582 26.9002 41.1004 27.6239 40.55 27.6239H30.6965C30.0725 27.6239 29.5667 27.1181 29.5667 26.4941C29.5667 25.87 30.0725 25.3642 30.6965 25.3642H33.2297C33.6387 25.3405 33.7356 25.1044 33.7356 25.1044L33.7379 25.1056L37.0446 19.3782L37.0436 19.378C37.1039 19.2674 37.0537 19.1628 37.045 19.1463L35.9529 17.2548C35.6409 16.7145 35.826 16.0234 36.3665 15.7114C36.9069 15.3994 37.5979 15.5845 37.9099 16.1249L38.4164 17.0022L38.9219 16.1265C39.2339 15.5861 39.925 15.4009 40.4654 15.713C41.0058 16.025 41.191 16.7159 40.879 17.2564L36.2776 25.2261C36.2575 25.2746 36.2513 25.3508 36.401 25.3642H39.1514L39.152 25.391C39.152 25.391 40.7417 25.4157 40.9582 26.9002Z" fill="white"/>
    <defs>
        <linearGradient id="paint0_linear" x1="38.5" y1="11" x2="38.5" y2="36" gradientUnits="userSpaceOnUse">
            <stop stop-color="#17C9FB"/>
            <stop offset="1" stop-color="#1A74E8"/>
        </linearGradient>
    </defs>
</svg>
