<svg width="85" height="66" viewBox="0 0 85 66" fill="none" xmlns="http://www.w3.org/2000/svg">
<path d="M23.6001 0.729243C10.6001 -0.770752 7.1001 -0.2708 2.10014 5.22924C-4.39986 23.7292 5.10014 45.7293 18.1001 58.7293C28.5001 69.1292 40.7668 64.3959 45.6001 60.7293C47.2001 55.1293 63.9335 51.7293 76.6001 42.2293C90.6001 31.7293 82.6001 14.7293 76.6001 11.2293C74.2001 6.42926 60.9335 5.22925 54.6001 5.22924C41.6001 6.22925 36.6001 3.72925 23.6001 0.729243Z" fill="#0A4CB0"/>
<path d="M54.5 33H43.835L37.585 25.5H28.25C27.2557 25.501 26.3025 25.8964 25.5994 26.5994C24.8964 27.3025 24.501 28.2557 24.5 29.25V36.75C24.5007 37.4128 24.7643 38.0483 25.233 38.517C25.7017 38.9857 26.3372 39.2493 27 39.25V48C27.0007 48.6628 27.2643 49.2983 27.733 49.767C28.2017 50.2357 28.8372 50.4993 29.5 50.5H34.5C35.1628 50.4993 35.7983 50.2357 36.267 49.767C36.7357 49.2983 36.9993 48.6628 37 48V39.25H34.5V48H29.5V36.75H27V29.25C27 28.9185 27.1317 28.6005 27.3661 28.3661C27.6005 28.1317 27.9185 28 28.25 28H36.415L42.665 35.5H54.5C54.8315 35.5 55.1495 35.6317 55.3839 35.8661C55.6183 36.1005 55.75 36.4185 55.75 36.75V40.5H53.25V48H49.5V40.5H47V48C47.0007 48.6628 47.2643 49.2983 47.733 49.767C48.2017 50.2357 48.8372 50.4993 49.5 50.5H53.25C53.9128 50.4993 54.5483 50.2357 55.017 49.767C55.4857 49.2983 55.7493 48.6628 55.75 48V43C56.4128 42.9993 57.0483 42.7357 57.517 42.267C57.9857 41.7983 58.2493 41.1628 58.25 40.5V36.75C58.249 35.7557 57.8536 34.8025 57.1506 34.0994C56.4475 33.3964 55.4943 33.001 54.5 33Z" fill="white"/>
<path d="M51.375 31.75C50.5097 31.75 49.6638 31.4934 48.9444 31.0127C48.2249 30.5319 47.6642 29.8487 47.333 29.0492C47.0019 28.2498 46.9153 27.3701 47.0841 26.5215C47.2529 25.6728 47.6696 24.8933 48.2814 24.2814C48.8933 23.6696 49.6728 23.2529 50.5215 23.0841C51.3702 22.9153 52.2498 23.0019 53.0492 23.333C53.8487 23.6642 54.532 24.2249 55.0127 24.9444C55.4934 25.6638 55.75 26.5097 55.75 27.375C55.7487 28.5349 55.2873 29.6469 54.4671 30.4671C53.6469 31.2873 52.5349 31.7487 51.375 31.75ZM51.375 25.5C51.0042 25.5 50.6417 25.61 50.3333 25.816C50.025 26.022 49.7846 26.3149 49.6427 26.6575C49.5008 27.0001 49.4637 27.3771 49.536 27.7408C49.6084 28.1045 49.787 28.4386 50.0492 28.7008C50.3114 28.9631 50.6455 29.1416 51.0092 29.214C51.3729 29.2863 51.7499 29.2492 52.0925 29.1073C52.4351 28.9654 52.728 28.725 52.934 28.4167C53.14 28.1084 53.25 27.7458 53.25 27.375C53.2493 26.8779 53.0516 26.4014 52.7001 26.0499C52.3486 25.6984 51.8721 25.5007 51.375 25.5Z" fill="white"/>
<path d="M32 24.25C31.0111 24.25 30.0444 23.9568 29.2222 23.4074C28.3999 22.8579 27.759 22.077 27.3806 21.1634C27.0022 20.2498 26.9031 19.2445 27.0961 18.2746C27.289 17.3046 27.7652 16.4137 28.4645 15.7145C29.1637 15.0152 30.0546 14.539 31.0246 14.3461C31.9945 14.1531 32.9998 14.2522 33.9134 14.6306C34.8271 15.009 35.6079 15.6499 36.1574 16.4722C36.7068 17.2944 37 18.2611 37 19.25C36.9987 20.5757 36.4715 21.8467 35.5341 22.7841C34.5967 23.7215 33.3257 24.2487 32 24.25ZM32 16.75C31.5055 16.75 31.0222 16.8966 30.6111 17.1713C30.2 17.446 29.8795 17.8365 29.6903 18.2933C29.5011 18.7501 29.4516 19.2528 29.548 19.7377C29.6445 20.2227 29.8826 20.6681 30.2322 21.0178C30.5819 21.3674 31.0273 21.6055 31.5123 21.702C31.9972 21.7984 32.4999 21.7489 32.9567 21.5597C33.4135 21.3705 33.804 21.0501 34.0787 20.6389C34.3534 20.2278 34.5 19.7445 34.5 19.25C34.4993 18.5872 34.2357 17.9517 33.767 17.483C33.2983 17.0143 32.6628 16.7507 32 16.75Z" fill="white"/>
</svg>
