<svg width="36" height="36" viewBox="0 0 36 36" fill="none" xmlns="http://www.w3.org/2000/svg">
    <path d="M27 3.7125C24.3563 2.08125 21.3188 1.125 18 1.125V3.7125H27Z" fill="#ED4C5C"/>
    <path d="M18 6.2999H30.15C29.1937 5.34365 28.125 4.44365 27 3.7124H18V6.2999Z" fill="white"/>
    <path d="M18 8.8873H32.2313C31.6125 7.93105 30.9375 7.0873 30.2063 6.2998H18V8.8873Z" fill="#ED4C5C"/>
    <path d="M18 11.4752H33.5812C33.1875 10.5752 32.7375 9.6752 32.2312 8.8877H18V11.4752Z" fill="white"/>
    <path d="M18 14.0626H34.425C34.2 13.1626 33.9187 12.3188 33.5812 11.4751H18V14.0626Z" fill="#ED4C5C"/>
    <path d="M18 16.7062H34.8188C34.7625 15.8062 34.5938 14.9624 34.425 14.1187H18V16.7062Z" fill="white"/>
    <path d="M34.8188 16.7061H18V17.9998H1.125C1.125 18.4498 1.125 18.8436 1.18125 19.2936H34.8188C34.875 18.8436 34.875 18.4498 34.875 17.9998C34.875 17.5498 34.875 17.0998 34.8188 16.7061Z" fill="#ED4C5C"/>
    <path d="M1.57502 21.8814H34.425C34.65 21.0377 34.7625 20.1939 34.8188 19.2939H1.18127C1.23752 20.1377 1.35002 21.0377 1.57502 21.8814Z" fill="white"/>
    <path d="M2.4187 24.4688H33.5812C33.9187 23.6251 34.1999 22.7813 34.4249 21.8813H1.57495C1.79995 22.7813 2.0812 23.6251 2.4187 24.4688Z" fill="#ED4C5C"/>
    <path d="M3.7687 27.0562H32.2312C32.7374 26.2125 33.1874 25.3688 33.5812 24.4688H2.4187C2.81245 25.3688 3.26245 26.2125 3.7687 27.0562Z" fill="white"/>
    <path d="M5.7938 29.6437H30.2063C30.9376 28.8562 31.6688 27.9562 32.2313 27.0562H3.7688C4.3313 28.0124 5.06255 28.8562 5.7938 29.6437Z" fill="#ED4C5C"/>
    <path d="M8.9437 32.2311H27.0562C28.2375 31.4998 29.25 30.5998 30.2062 29.6436H5.7937C6.74995 30.6561 7.8187 31.4998 8.9437 32.2311Z" fill="white"/>
    <path d="M18 34.8752C21.3187 34.8752 24.4125 33.9189 27.0562 32.2314H8.94373C11.5875 33.9189 14.6812 34.8752 18 34.8752Z" fill="#ED4C5C"/>
    <path d="M9 3.7125C7.81875 4.44375 6.75 5.34375 5.79375 6.3C5.00625 7.0875 4.33125 7.9875 3.76875 8.8875C3.2625 9.73125 2.75625 10.575 2.41875 11.475C2.08125 12.3187 1.8 13.1625 1.575 14.0625C1.35 14.9062 1.2375 15.75 1.18125 16.65C1.125 17.1 1.125 17.55 1.125 18H18V1.125C14.6812 1.125 11.6438 2.08125 9 3.7125Z" fill="#428BC1"/>
    <path d="M14.0625 1.6875L14.3438 2.53125H15.1875L14.5125 3.09375L14.7375 3.9375L14.0625 3.43125L13.3875 3.9375L13.6125 3.09375L12.9375 2.53125H13.7812L14.0625 1.6875Z" fill="white"/>
    <path d="M16.3125 5.0625L16.5938 5.90625H17.4375L16.7625 6.46875L16.9875 7.3125L16.3125 6.80625L15.6375 7.3125L15.8625 6.46875L15.1875 5.90625H16.0312L16.3125 5.0625Z" fill="white"/>
    <path d="M11.8125 5.0625L12.0938 5.90625H12.9375L12.2625 6.46875L12.4875 7.3125L11.8125 6.80625L11.1375 7.3125L11.3625 6.46875L10.6875 5.90625H11.5312L11.8125 5.0625Z" fill="white"/>
    <path d="M14.0625 8.4375L14.3438 9.28125H15.1875L14.5125 9.84375L14.7375 10.6875L14.0625 10.1813L13.3875 10.6875L13.6125 9.84375L12.9375 9.28125H13.7812L14.0625 8.4375Z" fill="white"/>
    <path d="M9.5625 8.4375L9.84375 9.28125H10.6875L10.0125 9.84375L10.2375 10.6875L9.5625 10.1813L8.8875 10.6875L9.1125 9.84375L8.4375 9.28125H9.28125L9.5625 8.4375Z" fill="white"/>
    <path d="M5.0625 8.4375L5.34375 9.28125H6.1875L5.5125 9.84375L5.7375 10.6875L5.0625 10.1813L4.3875 10.6875L4.6125 9.84375L3.9375 9.28125H4.78125L5.0625 8.4375Z" fill="white"/>
    <path d="M16.3125 11.8125L16.5938 12.6562H17.4375L16.7625 13.2188L16.9875 14.0625L16.3125 13.5563L15.6375 14.0625L15.8625 13.2188L15.1875 12.6562H16.0312L16.3125 11.8125Z" fill="white"/>
    <path d="M11.8125 11.8125L12.0938 12.6562H12.9375L12.2625 13.2188L12.4875 14.0625L11.8125 13.5563L11.1375 14.0625L11.3625 13.2188L10.6875 12.6562H11.5312L11.8125 11.8125Z" fill="white"/>
    <path d="M7.3125 11.8125L7.59375 12.6562H8.4375L7.7625 13.2188L7.9875 14.0625L7.3125 13.5563L6.6375 14.0625L6.8625 13.2188L6.1875 12.6562H7.03125L7.3125 11.8125Z" fill="white"/>
    <path d="M14.0625 15.1875L14.3438 16.0312H15.1875L14.5125 16.5938L14.7375 17.4375L14.0625 16.9313L13.3875 17.4375L13.6125 16.5938L12.9375 16.0312H13.7812L14.0625 15.1875Z" fill="white"/>
    <path d="M9.5625 15.1875L9.84375 16.0312H10.6875L10.0125 16.5938L10.2375 17.4375L9.5625 16.9313L8.8875 17.4375L9.1125 16.5938L8.4375 16.0312H9.28125L9.5625 15.1875Z" fill="white"/>
    <path d="M5.0625 15.1875L5.34375 16.0312H6.1875L5.5125 16.5938L5.7375 17.4375L5.0625 16.9313L4.3875 17.4375L4.6125 16.5938L3.9375 16.0312H4.78125L5.0625 15.1875Z" fill="white"/>
    <path d="M6.63752 7.3125L7.31252 6.80625L7.98752 7.3125L7.70627 6.46875L8.38127 5.90625H7.53752L7.31252 5.0625L7.03127 5.90625H6.24377L6.91877 6.4125L6.63752 7.3125Z" fill="white"/>
    <path d="M2.13748 14.0625L2.81248 13.5563L3.48748 14.0625L3.20623 13.2188L3.88123 12.6562H3.09373L2.81248 11.8125L2.53123 12.6562H1.96873C1.96873 12.7125 1.91248 12.7687 1.91248 12.825L2.36248 13.1625L2.13748 14.0625Z" fill="white"/>
</svg>
