<svg width="36" height="36" viewBox="0 0 36 36" fill="none" xmlns="http://www.w3.org/2000/svg">
    <path d="M1.125 18C1.125 21.3188 2.08125 24.4125 3.7125 27H32.2312C33.8625 24.4125 34.8188 21.3188 34.8188 18C34.8188 14.6813 33.8625 11.5875 32.2312 9H3.7125C2.08125 11.5875 1.125 14.6813 1.125 18Z" fill="#FFCE31"/>
    <path d="M32.2875 9C29.3063 4.275 24.0188 1.125 18 1.125C11.9813 1.125 6.69377 4.275 3.71252 9H32.2875Z" fill="#ED4C5C"/>
    <path d="M3.71252 27C6.69377 31.725 11.9813 34.875 18 34.875C24.0188 34.875 29.3063 31.725 32.2875 27H3.71252Z" fill="#ED4C5C"/>
    <path d="M5.17505 16.1436H6.97505V17.1561H5.17505V16.1436Z" fill="#C8B100"/>
    <path d="M5.17505 23.5684H7.0313V24.5246H5.17505V23.5684Z" fill="#C8B100"/>
    <path d="M5.00623 21.9937C4.83748 22.1062 4.72498 22.2187 4.72498 22.2749C4.72498 22.3312 4.78123 22.3874 4.89373 22.4437C5.00623 22.4999 5.11873 22.6124 5.06248 22.7249C5.17498 22.6124 5.23123 22.4999 5.23123 22.3874C5.23123 22.2187 5.11873 22.0499 5.00623 21.9937Z" fill="#ED4C5C"/>
    <path d="M5.4563 17.1562H6.75005V23.5688H5.4563V17.1562Z" fill="white"/>
    <path d="M8.09998 19.5188C7.81873 19.4063 7.31248 19.2937 6.74998 19.2937C6.58123 19.2937 6.35623 19.2938 6.13123 19.35C5.34373 19.4625 4.72498 19.8 4.78123 20.025L4.49998 19.4063C4.44373 19.125 5.11873 18.7875 5.96248 18.6187C6.24373 18.5625 6.52498 18.5625 6.74998 18.5625C7.31248 18.5625 7.81873 18.6187 8.09998 18.7312V19.5188Z" fill="#ED4C5C"/>
    <path d="M5.45627 20.3625C5.11877 20.3625 4.83752 20.25 4.83752 20.0813C4.83752 19.9688 4.95002 19.8 5.17502 19.6875H5.51252L5.45627 20.3625Z" fill="#ED4C5C"/>
    <path d="M6.75 19.8564C6.975 19.9127 7.14375 19.9689 7.25625 20.0252C7.3125 20.0814 7.0875 20.3064 6.75 20.4752V19.8564Z" fill="#ED4C5C"/>
    <path d="M4.61254 21.5999C4.55629 21.4874 4.95004 21.2624 5.45629 21.0937C5.68129 21.0374 5.85004 20.9249 6.13129 20.8124C6.80629 20.5312 7.36879 20.1374 7.25629 20.0249L7.36879 20.6999C7.42504 20.8124 6.97504 21.1499 6.30004 21.4874C6.07504 21.5999 5.68129 21.7687 5.45629 21.8249C5.06254 21.9374 4.72504 22.1624 4.72504 22.2187L4.61254 21.5999Z" fill="#ED4C5C"/>
    <path d="M17.2688 16.1436H19.0688V17.1561H17.2688V16.1436Z" fill="#C8B100"/>
    <path d="M17.2125 23.5684H19.0688V24.5246H17.2125V23.5684Z" fill="#C8B100"/>
    <path d="M19.2375 21.9937C19.4062 22.1062 19.5187 22.2187 19.5187 22.2749C19.5187 22.3312 19.4625 22.3874 19.35 22.4437C19.2375 22.5562 19.125 22.7249 19.1812 22.7812C19.0687 22.6687 19.0125 22.5562 19.0125 22.4437C19.0125 22.2187 19.125 22.0499 19.2375 21.9937Z" fill="#ED4C5C"/>
    <path d="M17.4938 17.1562H18.7875V23.5688H17.4938V17.1562Z" fill="white"/>
    <path d="M16.1437 19.5188C16.4249 19.4063 16.9312 19.2937 17.4937 19.2937C17.6624 19.2937 17.8874 19.2938 18.1124 19.35C18.8999 19.4625 19.5187 19.8 19.4624 20.025L19.7437 19.35C19.7999 19.0688 19.1249 18.7313 18.2812 18.5625H17.4937C16.9312 18.5625 16.4249 18.6187 16.1437 18.7312V19.5188Z" fill="#ED4C5C"/>
    <path d="M18.7875 20.3625C19.125 20.3625 19.4062 20.25 19.4062 20.0813C19.4062 19.9688 19.2937 19.8 19.0687 19.6875H18.7312L18.7875 20.3625Z" fill="#ED4C5C"/>
    <path d="M17.4937 19.8564C17.2687 19.9127 17.1 19.9689 16.9875 20.0252C16.9312 20.0814 17.1562 20.3064 17.4937 20.4752V19.8564Z" fill="#ED4C5C"/>
    <path d="M19.6312 21.6004C19.6875 21.4879 19.2937 21.2629 18.7875 21.0941C18.5625 21.0379 18.3937 20.9254 18.1125 20.8129C17.4375 20.5316 16.875 20.1379 16.9875 20.0254L16.875 20.7004C16.8187 20.8129 17.2687 21.1504 17.9437 21.4879C18.1687 21.6004 18.5625 21.7691 18.7875 21.8254C19.1812 21.9379 19.5187 22.2191 19.4625 22.2754L19.6312 21.6004Z" fill="#ED4C5C"/>
    <path d="M12.0937 12.5439C13.1625 12.5439 15.3562 12.7689 16.1437 13.5564C15.3 15.5814 13.95 14.7377 12.0937 14.7377C10.2937 14.7377 8.88745 15.5814 8.0437 13.5564C8.8312 12.7689 10.9687 12.5439 12.0937 12.5439Z" fill="#ED4C5C"/>
    <path d="M14.8499 14.7937C14.1749 14.4 13.1624 14.3438 12.0937 14.3438C11.0249 14.3438 10.0124 14.4562 9.3374 14.7937L9.5624 15.75C10.1812 15.9187 11.0812 16.0312 12.0937 16.0875C13.1062 16.0875 13.9499 15.975 14.6249 15.75L14.8499 14.7937Z" fill="#C8B100"/>
    <path d="M15.8062 12.375C15.5812 12.2063 15.1312 12.0375 14.7375 12.0375C14.5687 12.0375 14.4 12.0375 14.2312 12.0938C14.2312 12.0938 13.8937 11.6438 13.1062 11.6438C12.825 11.6438 12.6 11.7 12.375 11.8125V11.7562C12.3187 11.6437 12.2062 11.5312 12.0937 11.5312C11.9812 11.5312 11.8125 11.7 11.8125 11.8125V11.8688C11.5875 11.7563 11.3625 11.7 11.0812 11.7C10.2937 11.7 9.9562 12.2063 9.9562 12.15C9.78745 12.0938 9.6187 12.0938 9.44995 12.0938C6.86245 12.0938 8.1562 13.8375 8.1562 13.8375L8.43745 13.5C7.8187 12.7125 8.3812 12.2625 9.5062 12.2625C9.67495 12.2625 9.78745 12.2625 9.89995 12.3187C9.5062 12.8812 10.2375 13.3875 10.2375 13.3875L10.4062 13.1062C10.0125 12.825 9.9562 11.8688 11.0812 11.8688C11.3625 11.8688 11.5875 11.925 11.8125 12.0938C11.8125 12.15 11.7562 12.9375 11.7 13.05L12.15 13.4438L12.6 13.05C12.5437 12.8813 12.4875 12.15 12.4875 12.0938C12.6562 11.9813 12.9375 11.8688 13.2187 11.8688C14.4 11.8688 14.4 12.825 13.8937 13.1062L14.0625 13.3875C14.0625 13.3875 14.6812 12.8812 14.4 12.3187C14.5125 12.3187 14.6812 12.2625 14.7937 12.2625C16.1437 12.2625 16.2 13.275 15.8625 13.5L16.0875 13.8375C15.975 13.8375 16.5937 13.05 15.8062 12.375Z" fill="#C8B100"/>
    <path d="M11.7562 11.3063C11.7562 11.1375 11.925 10.9688 12.0937 10.9688C12.2625 10.9688 12.4312 11.1375 12.4312 11.3063C12.4312 11.475 12.2625 11.6438 12.0937 11.6438C11.925 11.6438 11.7562 11.475 11.7562 11.3063Z" fill="#005BBF"/>
    <path d="M11.9812 10.3501V10.5188H11.8125V10.6876H11.9812V11.2501H11.7562V11.4188H12.4312L12.4875 11.3063L12.4312 11.2501H12.2062V10.6876H12.375V10.5188H12.2062V10.3501H11.9812Z" fill="#C8B100"/>
    <path d="M12.0937 15.9189C11.1937 15.9189 10.4062 15.8064 9.78748 15.6377C10.4062 15.4689 11.1937 15.3564 12.0937 15.3564C12.9937 15.3564 13.7812 15.4689 14.4 15.6377C13.8375 15.8064 12.9937 15.9189 12.0937 15.9189Z" fill="#ED4C5C"/>
    <path d="M12.15 25.6499C11.0812 25.6499 10.0687 25.3687 9.16873 24.9749C8.49373 24.6374 8.09998 24.0187 8.09998 23.2874V20.5874H16.2V23.2874C16.2 24.0187 15.75 24.6937 15.1312 24.9749C14.2312 25.4249 13.2187 25.6499 12.15 25.6499Z" fill="white"/>
    <path d="M12.0938 16.0874H16.1438V20.5874H12.0938V16.0874Z" fill="white"/>
    <path d="M12.15 23.2874C12.15 24.3562 11.25 25.1999 10.125 25.1999C8.99998 25.1999 8.09998 24.3562 8.09998 23.2874V20.5874H12.15V23.2874Z" fill="#ED4C5C"/>
    <path d="M8.94373 24.8626C9.05623 24.9188 9.22498 25.0313 9.44998 25.0876V20.4751H8.99998L8.94373 24.8626Z" fill="#C8B100"/>
    <path d="M8.0437 23.2313C8.0437 23.7938 8.2687 24.2438 8.4937 24.4688V20.4751H8.0437V23.2313Z" fill="#C8B100"/>
    <path d="M9.84375 25.2001H10.2937V20.4751H9.84375V25.2001Z" fill="#C7B500"/>
    <path d="M10.7438 25.0876C10.9125 25.0313 11.1375 24.9188 11.25 24.8626V20.4751H10.8L10.7438 25.0876Z" fill="#C8B100"/>
    <path d="M8.0437 16.0874H12.0937V20.5874H8.0437V16.0874Z" fill="#ED4C5C"/>
    <path d="M11.7 24.4688C11.925 24.3 12.0937 23.9063 12.15 23.4563V20.5312H11.7V24.4688Z" fill="#C8B100"/>
    <path d="M16.2 20.5874V23.2874C16.2 24.3562 15.3 25.1999 14.175 25.1999C13.05 25.1999 12.15 24.3562 12.15 23.2874V20.5874H16.2Z" fill="#ED4C5C"/>
    <path d="M14.7375 16.8748C14.9062 17.2123 14.9062 18.056 14.4 17.8873C14.5124 17.9435 14.5687 18.3373 14.7375 18.5623C15.0187 18.8998 15.3562 18.6185 15.2999 18.2248C15.1874 17.606 15.2437 17.2123 15.3562 16.5935C15.3562 16.6498 15.6374 16.6498 15.7499 16.5373C15.6937 16.706 15.6374 16.931 15.7499 16.931C15.6374 17.0998 15.3562 17.381 15.2999 17.5498C15.2437 17.9435 15.8624 18.6748 15.1874 18.8435C14.7374 18.956 15.0187 19.2935 15.1874 19.4623C15.1874 19.4623 14.9624 20.1935 15.0749 20.1373C14.6249 20.306 14.7375 19.9123 14.7375 19.9123C14.9625 19.2373 14.3437 19.181 14.4 19.0685C13.8375 19.0123 14.4562 19.5748 13.9499 19.5748C13.8374 19.5748 13.6125 19.6873 13.6125 19.6873C12.9937 19.631 13.3312 19.0685 13.5562 19.1248C13.725 19.181 13.8937 19.4623 13.8937 19.0685C13.8937 19.0685 13.6125 18.6185 14.3437 18.6185C14.0624 18.6185 13.8937 18.3935 13.7812 18.1123C13.6687 18.1685 13.4999 18.4498 12.8812 18.506C12.8812 18.506 12.7125 17.8873 12.8812 17.9998C13.1062 18.1123 13.2187 18.1123 13.4437 17.8873C13.3312 17.7185 12.6562 17.4935 12.7687 17.0998C12.7687 16.9873 13.1062 16.8185 13.1062 16.8185C13.0499 17.0998 13.2187 17.381 13.5562 17.381C14.0062 17.4373 13.8375 17.2685 13.8937 17.156C13.95 17.0435 14.2875 17.2123 14.175 16.931C14.175 16.8748 13.7812 16.8185 13.8937 16.6498C14.1187 16.3685 14.4562 16.5935 14.7375 16.8748Z" fill="#ED4C5C"/>
    <path d="M12.15 25.0875L12.0375 24.8062L12.15 24.4688L12.2625 24.8062L12.15 25.0875Z" fill="#ED4C5C"/>
    <path d="M9.28123 17.0437V17.325H9.39373V17.55H9.11248V18.1125H9.28123V19.35H8.94373V19.9688H11.25V19.35H10.9687V18.1125H11.0812V17.55H10.8V17.325H10.9687V17.0437H10.4062V17.325H10.5187V17.55H10.2375V16.875H10.4062V16.5938H9.78748V16.875H9.95623V17.55H9.67498V17.325H9.78748V17.0437H9.28123Z" fill="#C8B100"/>
    <path d="M15.6375 23.9624V21.1499H12.7125V23.9624L14.0625 24.5812H14.2313L15.6375 23.9624ZM14.0625 21.3749V22.3312L13.1063 21.3749H14.0625ZM12.8813 21.4312L14.0063 22.5562L12.8813 23.6812V21.4312ZM12.9938 23.9062L14.0625 22.8374V24.4124L12.9938 23.9062ZM14.2313 24.3562V22.7812L15.3 23.8499L14.2313 24.3562ZM15.4125 23.6812L14.2875 22.5562L15.4125 21.4312V23.6812ZM14.2313 21.3749H15.1875L14.2313 22.3312V21.3749Z" fill="#C8B100"/>
    <path d="M10.8 20.5313C10.8 19.6876 11.3625 19.0688 12.0938 19.0688C12.825 19.0688 13.3875 19.7438 13.3875 20.5313C13.3875 21.3188 12.825 21.9938 12.0938 21.9938C11.3625 21.9938 10.8 21.3751 10.8 20.5313Z" fill="#ED4C5C"/>
    <path d="M11.1937 20.5312C11.1937 19.9124 11.5875 19.4624 12.0937 19.4624C12.6 19.4624 12.9937 19.9687 12.9937 20.5312C12.9937 21.1499 12.6 21.5999 12.0937 21.5999C11.5875 21.5999 11.1937 21.1499 11.1937 20.5312Z" fill="#005BBF"/>
    <path d="M11.7 19.7998L11.475 20.4186L11.6437 20.4748L11.5312 20.6998H11.8687L11.7562 20.4748L11.925 20.4186L11.7 19.7998Z" fill="#C8B100"/>
    <path d="M12.5437 19.7998L12.3187 20.4186L12.4875 20.4748L12.375 20.6998H12.7125L12.6562 20.4748L12.825 20.4186L12.5437 19.7998Z" fill="#C8B100"/>
    <path d="M12.15 20.5312L11.8688 21.15L12.0375 21.2063L11.9813 21.4312H12.2625L12.2063 21.2063L12.375 21.15L12.15 20.5312Z" fill="#C8B100"/>
</svg>
