<svg width="36" height="36" viewBox="0 0 36 36" fill="none" xmlns="http://www.w3.org/2000/svg">
    <path d="M1.06873 17.9998C1.06873 25.3686 5.79373 31.6123 12.3187 33.9186V2.08105C5.79373 4.3873 1.06873 10.6311 1.06873 17.9998Z" fill="#428BC1"/>
    <path d="M34.8187 17.9998C34.8187 10.6311 30.15 4.3873 23.5687 2.08105V33.9186C30.15 31.6123 34.8187 25.3686 34.8187 17.9998Z" fill="#ED4C5C"/>
    <path d="M12.3187 33.9188C14.0625 34.5375 15.975 34.875 17.9437 34.875C19.9125 34.875 21.825 34.5375 23.5687 33.9188V2.08125C21.825 1.4625 19.9687 1.125 17.9437 1.125C15.9187 1.125 14.0625 1.4625 12.3187 2.08125V33.9188Z" fill="white"/>
</svg>
