<svg width="85" height="66" viewBox="0 0 85 66" fill="none" xmlns="http://www.w3.org/2000/svg">
<path d="M23.6001 0.729243C10.6001 -0.770752 7.1001 -0.2708 2.10014 5.22924C-4.39986 23.7292 5.10014 45.7293 18.1001 58.7293C28.5001 69.1292 40.7668 64.3959 45.6001 60.7293C47.2001 55.1293 63.9335 51.7293 76.6001 42.2293C90.6001 31.7293 82.6001 14.7293 76.6001 11.2293C74.2001 6.42926 60.9335 5.22925 54.6001 5.22924C41.6001 6.22925 36.6001 3.72925 23.6001 0.729243Z" fill="#0A4CB0"/>
<path d="M54.5 24L55.0613 25.7275H56.8776L55.4082 26.7951L55.9695 28.5225L54.5 27.4549L53.0305 28.5225L53.5918 26.7951L52.1224 25.7275H53.9387L54.5 24Z" fill="white"/>
<path d="M30.5 24L31.0613 25.7275H32.8776L31.4082 26.7951L31.9695 28.5225L30.5 27.4549L29.0305 28.5225L29.5918 26.7951L28.1224 25.7275H29.9387L30.5 24Z" fill="white"/>
<path d="M54.5 36L55.0613 37.7275H56.8776L55.4082 38.7951L55.9695 40.5225L54.5 39.4549L53.0305 40.5225L53.5918 38.7951L52.1224 37.7275H53.9387L54.5 36Z" fill="white"/>
<path d="M30.5 36L31.0613 37.7275H32.8776L31.4082 38.7951L31.9695 40.5225L30.5 39.4549L29.0305 40.5225L29.5918 38.7951L28.1224 37.7275H29.9387L30.5 36Z" fill="white"/>
<path d="M35.5 41L36.0613 42.7275H37.8776L36.4082 43.7951L36.9695 45.5225L35.5 44.4549L34.0305 45.5225L34.5918 43.7951L33.1224 42.7275H34.9387L35.5 41Z" fill="white"/>
<path d="M49.5 41L50.0613 42.7275H51.8776L50.4082 43.7951L50.9695 45.5225L49.5 44.4549L48.0305 45.5225L48.5918 43.7951L47.1224 42.7275H48.9387L49.5 41Z" fill="white"/>
<path d="M35.5 19L36.0613 20.7275H37.8776L36.4082 21.7951L36.9695 23.5225L35.5 22.4549L34.0305 23.5225L34.5918 21.7951L33.1224 20.7275H34.9387L35.5 19Z" fill="white"/>
<path d="M49.5 19L50.0613 20.7275H51.8776L50.4082 21.7951L50.9695 23.5225L49.5 22.4549L48.0305 23.5225L48.5918 21.7951L47.1224 20.7275H48.9387L49.5 19Z" fill="white"/>
<path d="M29.5 30L30.0613 31.7275H31.8776L30.4082 32.7951L30.9695 34.5225L29.5 33.4549L28.0305 34.5225L28.5918 32.7951L27.1224 31.7275H28.9387L29.5 30Z" fill="white"/>
<path d="M55.5 30L56.0613 31.7275H57.8776L56.4082 32.7951L56.9695 34.5225L55.5 33.4549L54.0305 34.5225L54.5918 32.7951L53.1224 31.7275H54.9387L55.5 30Z" fill="white"/>
<path d="M42.5 43L43.0613 44.7275H44.8776L43.4082 45.7951L43.9695 47.5225L42.5 46.4549L41.0305 47.5225L41.5918 45.7951L40.1224 44.7275H41.9387L42.5 43Z" fill="white"/>
<path d="M42.5 17L43.0613 18.7275H44.8776L43.4082 19.7951L43.9695 21.5225L42.5 20.4549L41.0305 21.5225L41.5918 19.7951L40.1224 18.7275H41.9387L42.5 17Z" fill="white"/>
</svg>
