<svg width="175" height="48" viewBox="0 0 175 48" fill="none" xmlns="http://www.w3.org/2000/svg">
    <path d="M0 23C0 10.2975 10.2975 0 23 0H152C164.703 0 175 10.2975 175 23V25C175 37.7025 164.703 48 152 48H23C10.2975 48 0 37.7025 0 25V23Z" fill="white"/>
    <path d="M72.9336 28.3213C72.5 28.9424 71.8936 29.4082 71.1143 29.7188C70.3408 30.0234 69.4385 30.1758 68.4072 30.1758C67.3643 30.1758 66.4385 29.9326 65.6299 29.4463C64.8213 28.9541 64.1943 28.2568 63.749 27.3545C63.3096 26.4521 63.084 25.4062 63.0723 24.2168V23.1006C63.0723 21.1729 63.5205 19.6787 64.417 18.6182C65.3193 17.5576 66.585 17.0273 68.2139 17.0273C69.5498 17.0273 70.625 17.3701 71.4395 18.0557C72.2539 18.7354 72.752 19.7021 72.9336 20.9561H71.2461C70.9297 19.2627 69.9219 18.416 68.2227 18.416C67.0918 18.416 66.2334 18.8145 65.6475 19.6113C65.0674 20.4023 64.7744 21.5508 64.7686 23.0566V24.1025C64.7686 25.5381 65.0967 26.6807 65.7529 27.5303C66.4092 28.374 67.2969 28.7959 68.416 28.7959C69.0488 28.7959 69.6025 28.7256 70.0771 28.585C70.5518 28.4443 70.9443 28.207 71.2549 27.873V24.999H68.293V23.6279H72.9336V28.3213ZM75.0693 25.1572C75.0693 24.2256 75.251 23.3877 75.6143 22.6436C75.9834 21.8994 76.4932 21.3252 77.1436 20.9209C77.7998 20.5166 78.5469 20.3145 79.3848 20.3145C80.6797 20.3145 81.7256 20.7627 82.5225 21.6592C83.3252 22.5557 83.7266 23.748 83.7266 25.2363V25.3506C83.7266 26.2764 83.5479 27.1084 83.1904 27.8467C82.8389 28.5791 82.332 29.1504 81.6699 29.5605C81.0137 29.9707 80.2578 30.1758 79.4023 30.1758C78.1133 30.1758 77.0674 29.7275 76.2646 28.8311C75.4678 27.9346 75.0693 26.748 75.0693 25.2715V25.1572ZM76.7041 25.3506C76.7041 26.4053 76.9473 27.252 77.4336 27.8906C77.9258 28.5293 78.582 28.8486 79.4023 28.8486C80.2285 28.8486 80.8848 28.5264 81.3711 27.8818C81.8574 27.2314 82.1006 26.3232 82.1006 25.1572C82.1006 24.1143 81.8516 23.2705 81.3535 22.626C80.8613 21.9756 80.2051 21.6504 79.3848 21.6504C78.582 21.6504 77.9346 21.9697 77.4424 22.6084C76.9502 23.2471 76.7041 24.1611 76.7041 25.3506ZM85.335 25.1572C85.335 24.2256 85.5166 23.3877 85.8799 22.6436C86.249 21.8994 86.7588 21.3252 87.4092 20.9209C88.0654 20.5166 88.8125 20.3145 89.6504 20.3145C90.9453 20.3145 91.9912 20.7627 92.7881 21.6592C93.5908 22.5557 93.9922 23.748 93.9922 25.2363V25.3506C93.9922 26.2764 93.8135 27.1084 93.4561 27.8467C93.1045 28.5791 92.5977 29.1504 91.9355 29.5605C91.2793 29.9707 90.5234 30.1758 89.668 30.1758C88.3789 30.1758 87.333 29.7275 86.5303 28.8311C85.7334 27.9346 85.335 26.748 85.335 25.2715V25.1572ZM86.9697 25.3506C86.9697 26.4053 87.2129 27.252 87.6992 27.8906C88.1914 28.5293 88.8477 28.8486 89.668 28.8486C90.4941 28.8486 91.1504 28.5264 91.6367 27.8818C92.123 27.2314 92.3662 26.3232 92.3662 25.1572C92.3662 24.1143 92.1172 23.2705 91.6191 22.626C91.127 21.9756 90.4707 21.6504 89.6504 21.6504C88.8477 21.6504 88.2002 21.9697 87.708 22.6084C87.2158 23.2471 86.9697 24.1611 86.9697 25.3506ZM95.6445 25.166C95.6445 23.6836 95.9873 22.5059 96.6729 21.6328C97.3584 20.7539 98.2666 20.3145 99.3975 20.3145C100.558 20.3145 101.463 20.7246 102.113 21.5449L102.192 20.4902H103.678V29.7715C103.678 31.002 103.312 31.9717 102.579 32.6807C101.853 33.3896 100.874 33.7441 99.6436 33.7441C98.958 33.7441 98.2871 33.5977 97.6309 33.3047C96.9746 33.0117 96.4736 32.6104 96.1279 32.1006L96.9717 31.125C97.6689 31.9863 98.5215 32.417 99.5293 32.417C100.32 32.417 100.936 32.1943 101.375 31.749C101.82 31.3037 102.043 30.6768 102.043 29.8682V29.0508C101.393 29.8008 100.505 30.1758 99.3799 30.1758C98.2666 30.1758 97.3643 29.7275 96.6729 28.8311C95.9873 27.9346 95.6445 26.7129 95.6445 25.166ZM97.2793 25.3506C97.2793 26.4229 97.499 27.2666 97.9385 27.8818C98.3779 28.4912 98.9932 28.7959 99.7842 28.7959C100.81 28.7959 101.562 28.3301 102.043 27.3984V23.0566C101.545 22.1484 100.798 21.6943 99.8018 21.6943C99.0107 21.6943 98.3926 22.002 97.9473 22.6172C97.502 23.2324 97.2793 24.1436 97.2793 25.3506ZM107.905 30H106.279V16.5H107.905V30ZM114.462 30.1758C113.173 30.1758 112.124 29.7539 111.315 28.9102C110.507 28.0605 110.103 26.9268 110.103 25.5088V25.21C110.103 24.2666 110.281 23.4258 110.639 22.6875C111.002 21.9434 111.506 21.3633 112.15 20.9473C112.801 20.5254 113.504 20.3145 114.26 20.3145C115.496 20.3145 116.457 20.7217 117.143 21.5361C117.828 22.3506 118.171 23.5166 118.171 25.0342V25.7109H111.729C111.752 26.6484 112.024 27.4072 112.546 27.9873C113.073 28.5615 113.741 28.8486 114.55 28.8486C115.124 28.8486 115.61 28.7314 116.009 28.4971C116.407 28.2627 116.756 27.9521 117.055 27.5654L118.048 28.3389C117.251 29.5635 116.056 30.1758 114.462 30.1758ZM114.26 21.6504C113.604 21.6504 113.053 21.8906 112.607 22.3711C112.162 22.8457 111.887 23.5137 111.781 24.375H116.545V24.252C116.498 23.4258 116.275 22.7871 115.877 22.3359C115.479 21.8789 114.939 21.6504 114.26 21.6504ZM126.468 24.9902V30H124.78V17.2031H129.5C130.9 17.2031 131.996 17.5605 132.787 18.2754C133.584 18.9902 133.982 19.9365 133.982 21.1143C133.982 22.3564 133.593 23.3145 132.813 23.9883C132.04 24.6562 130.93 24.9902 129.482 24.9902H126.468ZM126.468 23.6104H129.5C130.402 23.6104 131.094 23.3994 131.574 22.9775C132.055 22.5498 132.295 21.9346 132.295 21.1318C132.295 20.3701 132.055 19.7607 131.574 19.3037C131.094 18.8467 130.435 18.6094 129.597 18.5918H126.468V23.6104ZM137.647 30H136.021V16.5H137.647V30ZM146.129 30C146.035 29.8125 145.959 29.4785 145.9 28.998C145.145 29.7832 144.242 30.1758 143.193 30.1758C142.256 30.1758 141.485 29.9121 140.882 29.3848C140.284 28.8516 139.985 28.1777 139.985 27.3633C139.985 26.373 140.36 25.6055 141.11 25.0605C141.866 24.5098 142.927 24.2344 144.292 24.2344H145.874V23.4873C145.874 22.9189 145.704 22.4678 145.364 22.1338C145.024 21.7939 144.523 21.624 143.861 21.624C143.281 21.624 142.795 21.7705 142.402 22.0635C142.01 22.3564 141.813 22.7109 141.813 23.127H140.179C140.179 22.6523 140.346 22.1953 140.68 21.7559C141.02 21.3105 141.477 20.959 142.051 20.7012C142.631 20.4434 143.267 20.3145 143.958 20.3145C145.054 20.3145 145.912 20.5898 146.533 21.1406C147.154 21.6855 147.477 22.4385 147.5 23.3994V27.7764C147.5 28.6494 147.611 29.3438 147.834 29.8594V30H146.129ZM143.431 28.7607C143.94 28.7607 144.424 28.6289 144.881 28.3652C145.338 28.1016 145.669 27.7588 145.874 27.3369V25.3857H144.6C142.607 25.3857 141.611 25.9688 141.611 27.1348C141.611 27.6445 141.781 28.043 142.121 28.3301C142.461 28.6172 142.897 28.7607 143.431 28.7607ZM153.02 27.6182L155.234 20.4902H156.975L153.151 31.4678C152.56 33.0498 151.619 33.8408 150.33 33.8408L150.022 33.8145L149.416 33.7002V32.3818L149.855 32.417C150.406 32.417 150.834 32.3057 151.139 32.083C151.449 31.8604 151.704 31.4531 151.903 30.8613L152.264 29.8945L148.871 20.4902H150.646L153.02 27.6182Z" fill="black"/>
    <g clip-path="url(#clip0)">
        <path d="M35.4387 28.4683C38.6086 26.7277 41.0116 25.4015 41.2188 25.2983C41.8813 24.946 42.5656 24.0134 41.2188 23.289C40.7839 23.0611 38.4426 21.7762 35.4387 20.119L31.2744 24.3246L35.4387 28.4682V28.4683Z" fill="#FFD900"/>
        <path d="M31.2746 24.3246L18.0151 37.6882C18.3264 37.7294 18.6777 37.6469 19.092 37.4191C19.9617 36.9431 29.1816 31.908 35.4389 28.4692L31.2746 24.3246Z" fill="#F43249"/>
        <path d="M31.2745 24.3246L35.4387 20.1397C35.4387 20.1397 20.0245 11.7275 19.0918 11.231C18.7405 11.0229 18.3467 10.961 17.9944 11.0229L31.2745 24.3246Z" fill="#00EE76"/>
        <path d="M31.2745 24.3246L17.9944 11.0229C17.4555 11.1475 17 11.6236 17 12.5975V36.1136C17 37.0049 17.3524 37.6469 18.015 37.7088L31.2745 24.3246Z" fill="#00D3FF"/>
    </g>
    <defs>
        <clipPath id="clip0">
            <rect width="25" height="26.7578" fill="white" transform="translate(17 11)"/>
        </clipPath>
    </defs>
</svg>
