<svg width="65" height="24" viewBox="0 0 65 24" fill="none" xmlns="http://www.w3.org/2000/svg">
    <g clip-path="url(#clip0)">
        <path d="M34.8543 6.61102L32.1078 9.50901L30.5472 6.61102H27.7798L30.4016 11.9308L25.6575 17.2299H28.7369L31.4419 14.2078L33.2105 17.2299H36.082L33.2522 11.9929L37.913 6.61102H34.8543Z" fill="#FE7842"/>
        <path d="M26.7814 6.59058C26.7814 6.59058 20.7056 6.59058 19.8941 6.59058C19.0827 6.59058 17.7926 7.37719 17.5429 8.2673C17.1475 9.69551 15.9407 14.5186 15.8159 15.2431C15.6911 15.9675 16.6066 17.2302 17.5013 17.2302H21.5587C21.5587 17.2302 21.4131 18.8655 20.3519 20.2109C19.3116 21.5771 17.418 21.4529 16.1072 21.4116C14.7963 21.3701 11.1758 20.5835 9.4488 19.2174C7.72177 17.8512 6.39013 16.2366 6.39013 13.6078C6.39013 10.9789 8.49165 7.89471 11.4047 6.07311C14.3178 4.25154 21.5171 1.2708 29.5488 0.567012C33.3981 0.215119 34.8963 0.0909236 36.7898 0.0909236C38.6208 0.132323 38.7041 0.132323 41.0553 0.29792C41.0553 0.29792 39.6196 0.111621 36.8106 0.0495219C35.5413 0.00812262 34.7506 -0.0125795 33.7103 0.00812011C31.6087 0.0495193 29.2159 0.0288223 25.533 0.463514C21.8501 0.898208 13.0069 1.93319 6.39013 5.51422C-0.226635 9.09527 0.0022469 12.9454 0.0022469 12.9454C0.0022469 12.9454 -0.247443 16.6713 4.51746 19.176C9.28236 21.6806 14.1513 22.3016 15.0252 22.4258C15.8991 22.5293 19.0203 22.8605 20.0398 22.6742C21.0594 22.4879 22.932 22.0946 23.3066 20.8527C23.6603 19.6107 26.7814 6.59058 26.7814 6.59058ZM21.8709 15.5949C21.8709 15.5949 18.937 15.6156 18.6249 15.5949C18.3128 15.5742 18.4168 15.1809 18.4168 15.1809C18.4168 15.1809 19.9982 8.68125 20.0606 8.41217C20.1439 8.14308 20.4767 8.16379 20.4767 8.16379H23.6187L21.8709 15.5949Z" fill="#FE7842"/>
        <path d="M59.6986 4.68643C54.9337 2.18178 50.0648 1.56079 49.1909 1.43659C48.317 1.33309 45.1959 1.0019 44.1763 1.1882C43.1567 1.3745 41.2841 1.76779 40.9095 3.00976C40.535 4.25174 37.4347 17.2511 37.4347 17.2511C37.4347 17.2511 43.5104 17.2511 44.322 17.2511C45.1334 17.2511 46.4235 16.4645 46.6732 15.5745C47.0685 14.1462 48.2753 9.32316 48.4002 8.59864C48.5251 7.87417 47.6095 6.61147 46.7148 6.61147H42.6573C42.6573 6.61147 42.803 4.97622 43.8642 3.63075C44.9046 2.26457 46.798 2.38877 48.1089 2.43017C49.4197 2.47158 53.0402 3.25816 54.7673 4.62433C56.4943 5.99051 57.826 7.60509 57.826 10.2339C57.826 12.8628 55.7244 15.947 52.8114 17.7686C49.8983 19.5901 42.699 22.5709 34.6673 23.2747C30.8179 23.6266 29.3198 23.7508 27.4263 23.7508C25.5953 23.7094 25.5121 23.7094 23.1608 23.5438C23.1608 23.5438 24.5965 23.7301 27.4055 23.7922C28.6747 23.8336 29.4654 23.8543 30.5058 23.8336C32.6074 23.7922 35.0002 23.8129 38.6831 23.3782C42.366 22.9435 51.2092 21.9085 57.826 18.3275C64.4427 14.7464 64.2139 10.8963 64.2139 10.8963C64.2139 10.8963 64.4635 7.19107 59.6986 4.68643ZM45.5912 8.24676C45.9033 8.26747 45.7992 8.66078 45.7992 8.66078C45.7992 8.66078 44.2179 15.1604 44.1555 15.4295C44.093 15.6986 43.7393 15.678 43.7393 15.678H40.5974L42.3661 8.24676C42.3453 8.24676 45.2999 8.22605 45.5912 8.24676Z" fill="#FE7842"/>
    </g>
    <defs>
        <clipPath id="clip0">
            <rect width="64.2162" height="23.8756" fill="white"/>
        </clipPath>
    </defs>
</svg>
