<svg width="85" height="66" viewBox="0 0 85 66" fill="none" xmlns="http://www.w3.org/2000/svg">
<path d="M23.6001 0.729243C10.6001 -0.770752 7.1001 -0.2708 2.10014 5.22924C-4.39986 23.7292 5.10014 45.7293 18.1001 58.7293C28.5001 69.1292 40.7668 64.3959 45.6001 60.7293C47.2001 55.1293 63.9335 51.7293 76.6001 42.2293C90.6001 31.7293 82.6001 14.7293 76.6001 11.2293C74.2001 6.42926 60.9335 5.22925 54.6001 5.22924C41.6001 6.22925 36.6001 3.72925 23.6001 0.729243Z" fill="#0A4CB0"/>
<path d="M34.5 33H49.5V35.5H34.5V33Z" fill="white"/>
<path d="M34.5 25.5H49.5V28H34.5V25.5Z" fill="white"/>
<path d="M42 50.5L34.28 46.3838C32.0792 45.2129 30.2387 43.4648 28.9562 41.3272C27.6736 39.1895 26.9974 36.7429 27 34.25V18C27.0007 17.3372 27.2643 16.7017 27.733 16.233C28.2017 15.7643 28.8372 15.5007 29.5 15.5H54.5C55.1628 15.5007 55.7983 15.7643 56.267 16.233C56.7357 16.7017 56.9993 17.3372 57 18V34.25C57.0027 36.7429 56.3264 39.1895 55.0439 41.3272C53.7613 43.4648 51.9208 45.2129 49.72 46.3838L42 50.5ZM29.5 18V34.25C29.4979 36.2898 30.0514 38.2916 31.101 40.0406C32.1505 41.7896 33.6566 43.2197 35.4575 44.1775L42 47.6662L48.5425 44.1788C50.3436 43.2209 51.8498 41.7905 52.8994 40.0413C53.949 38.292 54.5023 36.29 54.5 34.25V18H29.5Z" fill="white"/>
</svg>
