<svg width="18" height="39" viewBox="0 0 18 39" fill="none" xmlns="http://www.w3.org/2000/svg">
    <path fill-rule="evenodd" clip-rule="evenodd" d="M-1.90735e-06 8.7482C0.000320435 7.18239 0.420805 5.64535 1.21759 4.29744C2.01437 2.94952 3.15826 1.8401 4.52992 1.08492C5.90158 0.329741 7.45076 -0.0435324 9.01584 0.00404029C10.5809 0.0516129 12.1046 0.518289 13.4278 1.35538C14.7511 2.19248 15.8255 3.36932 16.5389 4.76315C17.2524 6.15697 17.5787 7.71671 17.484 9.27964C17.3892 10.8426 16.8767 12.3514 16.0001 13.6488C15.1234 14.9462 13.9147 15.9846 12.5 16.6557V34.9982L8.75 38.7482L5 34.9982L7.5 32.4982L5 29.9982L7.5 27.4982L5 24.9982L7.5 22.4982L5 19.9982V16.6557C3.50368 15.9459 2.23951 14.8261 1.35442 13.4263C0.469324 12.0265 -0.000343323 10.4043 -1.90735e-06 8.7482ZM6.25 6.2482C6.25 6.91124 6.51339 7.54712 6.98223 8.01596C7.45107 8.4848 8.08696 8.74819 8.75 8.7482C9.41304 8.74819 10.0489 8.4848 10.5178 8.01596C10.9866 7.54712 11.25 6.91124 11.25 6.2482C11.25 5.58515 10.9866 4.94927 10.5178 4.48043C10.0489 4.01159 9.41304 3.74819 8.75 3.74819C8.08696 3.74819 7.45107 4.01159 6.98223 4.48043C6.51339 4.94927 6.25 5.58515 6.25 6.2482Z" fill="black"/>
</svg>
