<svg width="56" height="56" viewBox="0 0 56 56" fill="none" xmlns="http://www.w3.org/2000/svg">
    <rect width="56" height="56" rx="5" fill="#2165CC" fill-opacity="0.3"/>
    <path d="M21.6209 27.2017C20.9551 27.2017 20.4153 27.7415 20.4153 28.4073C20.4153 29.0732 20.9551 29.6129 21.6209 29.6129H28.1615C28.8273 29.6129 29.3671 29.0732 29.3671 28.4073C29.3671 27.7415 28.8273 27.2017 28.1615 27.2017H21.6209Z" fill="#262626"/>
    <path d="M21.6209 31.3073C20.9551 31.3073 20.4153 31.8471 20.4153 32.5129C20.4153 33.1788 20.9551 33.7186 21.6209 33.7186H24.711C25.3768 33.7186 25.9166 33.1788 25.9166 32.5129C25.9166 31.8471 25.3768 31.3073 24.711 31.3073H21.6209Z" fill="#262626"/>
    <path fill-rule="evenodd" clip-rule="evenodd" d="M18.8202 11.3333C17.0045 11.3333 15.5325 12.8067 15.5325 14.6242V35.5757C15.5325 37.3932 17.0045 38.8666 18.8202 38.8666H22.1731V41.3757C22.1731 43.1933 23.6451 44.6667 25.4609 44.6667H37.5051C39.3209 44.6667 40.7929 43.1933 40.7929 41.3757V20.4243C40.7929 18.6067 39.3209 17.1333 37.5051 17.1333H34.1523V14.6242C34.1523 12.8067 32.6803 11.3333 30.8645 11.3333H18.8202ZM34.1523 19.5445V29.6129H35.7461C36.412 29.6129 36.9517 30.1527 36.9517 30.8185C36.9517 31.4844 36.412 32.0241 35.7461 32.0241H34.1534L34.1523 35.5757C34.1523 37.3932 32.6803 38.8666 30.8645 38.8666H24.582V41.3757C24.582 41.8616 24.9754 42.2555 25.4609 42.2555H37.5051C37.9905 42.2555 38.384 41.8616 38.384 41.3757V20.4243C38.384 19.9384 37.9905 19.5445 37.5051 19.5445H34.1523ZM17.9413 14.6242C17.9413 14.1383 18.3348 13.7445 18.8202 13.7445H30.8645C31.3499 13.7445 31.7434 14.1383 31.7434 14.6242V23.4545H17.9413V14.6242ZM31.7434 35.5757V24.9534H17.9413V35.5757C17.9413 36.0616 18.3348 36.4554 18.8202 36.4554H30.8645C31.3499 36.4554 31.7434 36.0616 31.7434 35.5757Z" fill="#262626"/>
</svg>
