<svg width="40" height="40" viewBox="0 0 40 40" fill="none" xmlns="http://www.w3.org/2000/svg">
    <path d="M26.5373 21.2951C27.0994 20.9394 27.8434 21.1066 28.1992 21.6687C28.555 22.2307 28.3877 22.9748 27.8257 23.3305L24.8001 25.2456L23.5118 23.2102L26.5373 21.2951Z" fill="#262626"/>
    <path d="M22.1365 24.0807L23.4248 26.116L14.3755 31.8438L11.6098 32.1304L13.0872 29.8084L22.1365 24.0807Z" fill="#262626"/>
    <path d="M27.2266 16.4843H13.457V14.8567H27.2266V16.4843Z" fill="#262626"/>
    <path d="M13.457 20.7812H22.4414V19.1536L13.457 19.1536V20.7812Z" fill="#262626"/>
    <path fill-rule="evenodd" clip-rule="evenodd" d="M23.3854 6.45825H25.1432V4.53768C25.1432 3.87249 25.6825 3.33325 26.3477 3.33325C27.0128 3.33325 27.5521 3.87249 27.5521 4.53768V6.45825H30.1562C31.4507 6.45825 32.5 7.50759 32.5 8.802V34.3228C32.5 35.6173 31.4507 36.6666 30.1562 36.6666H9.84375C8.54933 36.6666 7.5 35.6173 7.5 34.3228V8.802C7.5 7.50759 8.54933 6.45825 9.84375 6.45825H12.6432V4.53768C12.6432 3.87249 13.1825 3.33325 13.8477 3.33325C14.5128 3.33325 15.0521 3.87249 15.0521 4.53768V6.45825H16.8099V4.53768C16.8099 3.87249 17.3491 3.33325 18.0143 3.33325C18.6795 3.33325 19.2188 3.87249 19.2188 4.53768V6.45825H20.9766V4.53768C20.9766 3.87249 21.5158 3.33325 22.181 3.33325C22.8462 3.33325 23.3854 3.87249 23.3854 4.53768V6.45825ZM12.6432 10.4622C12.6432 11.1273 13.1825 11.6666 13.8477 11.6666C14.5128 11.6666 15.0521 11.1273 15.0521 10.4622V8.86711H16.8099V10.4622C16.8099 11.1273 17.3491 11.6666 18.0143 11.6666C18.6795 11.6666 19.2188 11.1273 19.2188 10.4622V8.86711H20.9766V10.4622C20.9766 11.1273 21.5158 11.6666 22.181 11.6666C22.8462 11.6666 23.3854 11.1273 23.3854 10.4622V8.86711H25.1432V10.4622C25.1432 11.1273 25.6825 11.6666 26.3477 11.6666C27.0128 11.6666 27.5521 11.1273 27.5521 10.4622V8.86711H30.0911V34.2577H9.90885V8.86711H12.6432V10.4622Z" fill="#262626"/>
</svg>
