<svg width="56" height="56" viewBox="0 0 56 56" fill="none" xmlns="http://www.w3.org/2000/svg">
    <rect width="56" height="56" rx="5" fill="#287EFF" fill-opacity="0.3"/>
    <path d="M34.5373 29.2951C35.0994 28.9394 35.8434 29.1066 36.1992 29.6687C36.555 30.2307 36.3877 30.9748 35.8257 31.3305L32.8001 33.2456L31.5118 31.2102L34.5373 29.2951Z" fill="#262626"/>
    <path d="M30.1365 32.0807L31.4248 34.116L22.3755 39.8438L19.6098 40.1304L21.0872 37.8084L30.1365 32.0807Z" fill="#262626"/>
    <path d="M35.2266 24.4843H21.457V22.8567H35.2266V24.4843Z" fill="#262626"/>
    <path d="M21.457 28.7812H30.4414V27.1536L21.457 27.1536V28.7812Z" fill="#262626"/>
    <path fill-rule="evenodd" clip-rule="evenodd" d="M31.3854 14.4583H33.1432V12.5377C33.1432 11.8725 33.6825 11.3333 34.3477 11.3333C35.0128 11.3333 35.5521 11.8725 35.5521 12.5377V14.4583H38.1562C39.4507 14.4583 40.5 15.5076 40.5 16.802V42.3228C40.5 43.6173 39.4507 44.6666 38.1562 44.6666H17.8438C16.5493 44.6666 15.5 43.6173 15.5 42.3228V16.802C15.5 15.5076 16.5493 14.4583 17.8438 14.4583H20.6432V12.5377C20.6432 11.8725 21.1825 11.3333 21.8477 11.3333C22.5128 11.3333 23.0521 11.8725 23.0521 12.5377V14.4583H24.8099V12.5377C24.8099 11.8725 25.3491 11.3333 26.0143 11.3333C26.6795 11.3333 27.2188 11.8725 27.2188 12.5377V14.4583H28.9766V12.5377C28.9766 11.8725 29.5158 11.3333 30.181 11.3333C30.8462 11.3333 31.3854 11.8725 31.3854 12.5377V14.4583ZM20.6432 18.4622C20.6432 19.1273 21.1825 19.6666 21.8477 19.6666C22.5128 19.6666 23.0521 19.1273 23.0521 18.4622V16.8671H24.8099V18.4622C24.8099 19.1273 25.3491 19.6666 26.0143 19.6666C26.6795 19.6666 27.2188 19.1273 27.2188 18.4622V16.8671H28.9766V18.4622C28.9766 19.1273 29.5158 19.6666 30.181 19.6666C30.8462 19.6666 31.3854 19.1273 31.3854 18.4622V16.8671H33.1432V18.4622C33.1432 19.1273 33.6825 19.6666 34.3477 19.6666C35.0128 19.6666 35.5521 19.1273 35.5521 18.4622V16.8671H38.0911V42.2577H17.9089V16.8671H20.6432V18.4622Z" fill="#262626"/>
</svg>
