<svg width="16" height="16" viewBox="0 0 16 16" fill="none" xmlns="http://www.w3.org/2000/svg">
    <path fill-rule="evenodd" clip-rule="evenodd" d="M13.7031 7.99992C13.7031 11.1497 11.1497 13.7031 7.99992 13.7031C4.85017 13.7031 2.29679 11.1497 2.29679 7.99992C2.29679 4.85017 4.85017 2.29679 7.99992 2.29679C11.1497 2.29679 13.7031 4.85017 13.7031 7.99992ZM14.6666 7.99992C14.6666 11.6818 11.6818 14.6666 7.99992 14.6666C4.31802 14.6666 1.33325 11.6818 1.33325 7.99992C1.33325 4.31802 4.31802 1.33325 7.99992 1.33325C11.6818 1.33325 14.6666 4.31802 14.6666 7.99992ZM6.99992 10.8867L10.9999 8.57725C11.4444 8.32065 11.4444 7.67919 10.9999 7.42259L6.99992 5.11317C6.55547 4.85657 5.99992 5.17732 5.99992 5.69052V10.3093C5.99992 10.8225 6.55547 11.1433 6.99992 10.8867Z" fill="white" fill-opacity="0.85"/>
</svg>
