<svg width="24" height="24" viewBox="0 0 24 24" fill="none" xmlns="http://www.w3.org/2000/svg">
    <path d="M11.2969 20.0078C11.2969 20.4069 11.6204 20.7305 12.0195 20.7305C12.4186 20.7305 12.7422 20.4069 12.7422 20.0078V12.7031H20.0664C20.4655 12.7031 20.7891 12.3796 20.7891 11.9805C20.7891 11.5814 20.4655 11.2578 20.0664 11.2578H12.7422V3.95312C12.7422 3.55401 12.4186 3.23047 12.0195 3.23047C11.6204 3.23047 11.2969 3.55401 11.2969 3.95312V11.2578H3.97266C3.57354 11.2578 3.25 11.5814 3.25 11.9805C3.25 12.3796 3.57354 12.7031 3.97266 12.7031H11.2969V20.0078Z" fill="#0A4CB0"/>
</svg>
