<svg width="40" height="40" viewBox="0 0 40 40" fill="none" xmlns="http://www.w3.org/2000/svg">
    <path d="M13.6209 19.2017C12.9551 19.2017 12.4153 19.7415 12.4153 20.4073C12.4153 21.0732 12.9551 21.6129 13.6209 21.6129H20.1615C20.8273 21.6129 21.3671 21.0732 21.3671 20.4073C21.3671 19.7415 20.8273 19.2017 20.1615 19.2017H13.6209Z" fill="#262626"/>
    <path d="M13.6209 23.3073C12.9551 23.3073 12.4153 23.8471 12.4153 24.5129C12.4153 25.1788 12.9551 25.7186 13.6209 25.7186H16.711C17.3768 25.7186 17.9166 25.1788 17.9166 24.5129C17.9166 23.8471 17.3768 23.3073 16.711 23.3073H13.6209Z" fill="#262626"/>
    <path fill-rule="evenodd" clip-rule="evenodd" d="M10.8202 3.33325C9.00445 3.33325 7.53247 4.80667 7.53247 6.62423V27.5757C7.53247 29.3932 9.00445 30.8666 10.8202 30.8666H14.1731V33.3757C14.1731 35.1933 15.6451 36.6667 17.4609 36.6667H29.5051C31.3209 36.6667 32.7929 35.1933 32.7929 33.3757V12.4243C32.7929 10.6067 31.3209 9.13329 29.5051 9.13329H26.1523V6.62423C26.1523 4.80667 24.6803 3.33325 22.8645 3.33325H10.8202ZM26.1523 11.5445V21.6129H27.7461C28.412 21.6129 28.9517 22.1527 28.9517 22.8185C28.9517 23.4844 28.412 24.0241 27.7461 24.0241H26.1534L26.1523 27.5757C26.1523 29.3932 24.6803 30.8666 22.8645 30.8666H16.582V33.3757C16.582 33.8616 16.9754 34.2555 17.4609 34.2555H29.5051C29.9905 34.2555 30.384 33.8616 30.384 33.3757V12.4243C30.384 11.9384 29.9905 11.5445 29.5051 11.5445H26.1523ZM9.94132 6.62423C9.94132 6.13834 10.3348 5.74446 10.8202 5.74446H22.8645C23.3499 5.74446 23.7434 6.13834 23.7434 6.62423V15.4545H9.94132V6.62423ZM23.7434 27.5757V16.9534H9.94132V27.5757C9.94132 28.0616 10.3348 28.4554 10.8202 28.4554H22.8645C23.3499 28.4554 23.7434 28.0616 23.7434 27.5757Z" fill="#262626"/>
</svg>
