<svg width="40" height="40" viewBox="0 0 40 40" fill="none" xmlns="http://www.w3.org/2000/svg">
    <path d="M17.9167 12.7995C17.9167 12.2242 17.4504 11.7578 16.8751 11.7578H8.54175C6.81586 11.7578 5.41675 13.1569 5.41675 14.8828V29.7917C5.41675 31.5176 6.81586 32.9167 8.54175 32.9167H31.4584C33.1843 32.9167 34.5834 31.5176 34.5834 29.7917V14.8828C34.5834 13.1569 33.1843 11.7578 31.4584 11.7578H23.1251C22.5498 11.7578 22.0834 12.2242 22.0834 12.7995V12.7995C22.0834 13.3748 22.5498 13.8411 23.1251 13.8411H31.4584C32.0337 13.8411 32.5001 14.3075 32.5001 14.8828V29.7917C32.5001 30.367 32.0337 30.8333 31.4584 30.8333H8.54175C7.96645 30.8333 7.50008 30.367 7.50008 29.7917V14.8828C7.50008 14.3075 7.96645 13.8411 8.54175 13.8411H16.8751C17.4504 13.8411 17.9167 13.3748 17.9167 12.7995V12.7995Z" fill="#262626"/>
    <path d="M17.9493 16.5755C17.9493 16.1261 17.5849 15.7617 17.1355 15.7617H11.5365C10.4758 15.7617 9.61597 16.6216 9.61597 17.6823V26.7643C9.61597 27.825 10.4758 28.6849 11.5365 28.6849H28.4962C29.5569 28.6849 30.4167 27.825 30.4167 26.7643V17.6823C30.4167 16.6216 29.5569 15.7617 28.4962 15.7617H22.9298C22.4803 15.7617 22.116 16.1261 22.116 16.5755C22.116 17.025 22.4803 17.3893 22.9298 17.3893H28.4962C28.658 17.3893 28.7891 17.5205 28.7891 17.6823V26.7643C28.7891 26.9261 28.658 27.0573 28.4962 27.0573H11.5365C11.3747 27.0573 11.2436 26.9261 11.2436 26.7643V17.6823C11.2436 17.5205 11.3747 17.3893 11.5365 17.3893H17.1355C17.5849 17.3893 17.9493 17.025 17.9493 16.5755Z" fill="#262626"/>
    <path d="M20.4606 4.11757C20.1431 3.80114 19.6294 3.80114 19.3118 4.11757L14.8034 8.60975C14.485 8.92699 14.484 9.44226 14.8013 9.76064C15.1185 10.079 15.6338 10.08 15.9522 9.76272L19.0887 6.63751V21.6862C19.0887 22.1357 19.4531 22.5 19.9025 22.5C20.352 22.5 20.7163 22.1357 20.7163 21.6862V6.66995L23.8203 9.76272C24.1387 10.08 24.6539 10.079 24.9712 9.76064C25.2884 9.44226 25.2875 8.92699 24.9691 8.60975L20.4606 4.11757Z" fill="#262626"/>
</svg>
