<svg width="50" height="50" viewBox="0 0 50 50" fill="none" xmlns="http://www.w3.org/2000/svg">
    <circle cx="25" cy="25" r="25" fill="#287EFF" fill-opacity="0.3"/>
    <path d="M22.9167 17.7995C22.9167 17.2242 22.4504 16.7578 21.8751 16.7578H13.5417C11.8159 16.7578 10.4167 18.1569 10.4167 19.8828V34.7917C10.4167 36.5176 11.8159 37.9167 13.5417 37.9167H36.4584C38.1843 37.9167 39.5834 36.5176 39.5834 34.7917V19.8828C39.5834 18.1569 38.1843 16.7578 36.4584 16.7578H28.1251C27.5498 16.7578 27.0834 17.2242 27.0834 17.7995V17.7995C27.0834 18.3748 27.5498 18.8411 28.1251 18.8411H36.4584C37.0337 18.8411 37.5001 19.3075 37.5001 19.8828V34.7917C37.5001 35.367 37.0337 35.8333 36.4584 35.8333H13.5417C12.9665 35.8333 12.5001 35.367 12.5001 34.7917V19.8828C12.5001 19.3075 12.9665 18.8411 13.5417 18.8411H21.8751C22.4504 18.8411 22.9167 18.3748 22.9167 17.7995V17.7995Z" fill="#262626"/>
    <path d="M22.9493 21.5755C22.9493 21.1261 22.5849 20.7617 22.1355 20.7617H16.5365C15.4758 20.7617 14.616 21.6216 14.616 22.6823V31.7643C14.616 32.825 15.4758 33.6849 16.5365 33.6849H33.4962C34.5569 33.6849 35.4167 32.825 35.4167 31.7643V22.6823C35.4167 21.6216 34.5569 20.7617 33.4962 20.7617H27.9298C27.4803 20.7617 27.116 21.1261 27.116 21.5755C27.116 22.025 27.4803 22.3893 27.9298 22.3893H33.4962C33.658 22.3893 33.7891 22.5205 33.7891 22.6823V31.7643C33.7891 31.9261 33.658 32.0573 33.4962 32.0573H16.5365C16.3747 32.0573 16.2436 31.9261 16.2436 31.7643V22.6823C16.2436 22.5205 16.3747 22.3893 16.5365 22.3893H22.1355C22.5849 22.3893 22.9493 22.025 22.9493 21.5755Z" fill="#262626"/>
    <path d="M25.4606 9.11757C25.1431 8.80114 24.6294 8.80114 24.3118 9.11757L19.8034 13.6098C19.485 13.927 19.484 14.4423 19.8013 14.7606C20.1185 15.079 20.6338 15.08 20.9522 14.7627L24.0887 11.6375V26.6862C24.0887 27.1357 24.4531 27.5 24.9025 27.5C25.352 27.5 25.7163 27.1357 25.7163 26.6862V11.6699L28.8203 14.7627C29.1387 15.08 29.6539 15.079 29.9712 14.7606C30.2884 14.4423 30.2875 13.927 29.9691 13.6098L25.4606 9.11757Z" fill="#262626"/>
</svg>
