<svg width="42" height="31" viewBox="0 0 42 31" fill="none" xmlns="http://www.w3.org/2000/svg">
    <path fill-rule="evenodd" clip-rule="evenodd" d="M12.7931 0C10.4559 0 8.56128 1.89463 8.56128 4.23177V12.5L13 14L13.5 19C16.03 20 16.5 19.4366 16.5 25H29.1342C31.4713 25 33.366 23.1054 33.366 20.7682V19.1384L37.5112 21.5243C39.2473 22.5236 41.4145 21.2705 41.4145 19.2673V5.7001C41.4145 3.69695 39.2473 2.44382 37.5112 3.44311L33.366 5.82905V4.23177C33.366 1.89463 31.4713 0 29.1342 0H12.7931ZM30.9571 4.23177C30.9571 3.225 30.141 2.40885 29.1342 2.40885H12.7931C11.7863 2.40885 10.9701 3.225 10.9701 4.23177V12.1579L13 13.5L14 15.5V18.5C17 19 17 22.5036 16.5 22.5L29.1342 22.5911C30.141 22.5911 30.9571 21.775 30.9571 20.7682V16.4551C30.9571 15.808 31.6547 15.4012 32.2179 15.7198L33.2589 16.3088L33.2625 16.3086L33.366 16.359L38.7129 19.4366C38.8431 19.5116 39.0056 19.4176 39.0056 19.2673V5.7001C39.0056 5.54986 38.8431 5.45588 38.7129 5.53083L33.4255 8.57417L33.4311 8.57747L32.2179 9.26389C31.6739 9.57168 31.0044 9.20249 30.9595 8.59375H30.9571V4.23177Z" fill="#262626"/>
    <path d="M10.9766 23.8833C11.2957 23.6569 11.5039 23.2844 11.5039 22.8633C11.5039 22.1729 10.9443 21.6133 10.2539 21.6133C9.56355 21.6133 9.00391 22.1729 9.00391 22.8633C9.00391 23.2844 9.21214 23.6569 9.53125 23.8833V24.543C9.53125 24.9421 9.85479 25.2656 10.2539 25.2656C10.653 25.2656 10.9766 24.9421 10.9766 24.543V23.8833Z" fill="#262626"/>
    <path fill-rule="evenodd" clip-rule="evenodd" d="M6.01562 18.5469V16.252C6.01562 13.9166 7.9088 12.0234 10.2441 12.0234C12.5795 12.0234 14.4727 13.9166 14.4727 16.252V18.5469H14.9805C16.0807 18.5469 16.9727 19.4388 16.9727 20.5391V26.3789C16.9727 27.4792 16.0807 28.3711 14.9805 28.3711H5.50781C4.40756 28.3711 3.51562 27.4792 3.51562 26.3789V20.5391C3.51562 19.4388 4.40756 18.5469 5.50781 18.5469H6.01562ZM7.46094 16.252C7.46094 14.7148 8.70702 13.4688 10.2441 13.4688C11.7813 13.4688 13.0273 14.7148 13.0273 16.252V18.5469H7.46094V16.252ZM4.96094 20.5391C4.96094 20.237 5.20578 19.9922 5.50781 19.9922H14.9805C15.2825 19.9922 15.5273 20.237 15.5273 20.5391V26.3789C15.5273 26.6809 15.2825 26.9258 14.9805 26.9258H5.50781C5.20578 26.9258 4.96094 26.6809 4.96094 26.3789V20.5391Z" fill="#262626"/>
</svg>
