<svg width="50" height="50" viewBox="0 0 50 50" fill="none" xmlns="http://www.w3.org/2000/svg">
    <circle cx="25" cy="25" r="25" fill="#75ACFF" fill-opacity="0.3"/>
    <path fill-rule="evenodd" clip-rule="evenodd" d="M33.3334 22.9452C36.7852 22.9452 39.5834 20.1415 39.5834 16.683C39.5834 13.2245 36.7852 10.4208 33.3334 10.4208C29.8816 10.4208 27.0834 13.2245 27.0834 16.683C27.0834 17.3507 27.1877 17.994 27.3809 18.5974L21.8409 21.5189C20.7166 19.8601 18.8187 18.7704 16.6667 18.7704C13.215 18.7704 10.4167 21.5741 10.4167 25.0326C10.4167 28.4912 13.215 31.2949 16.6667 31.2949C18.8343 31.2949 20.7441 30.1893 21.8652 28.5103L27.3944 31.4261C27.1926 32.0416 27.0834 32.6991 27.0834 33.3823C27.0834 36.8408 29.8816 39.6445 33.3334 39.6445C36.7852 39.6445 39.5834 36.8408 39.5834 33.3823C39.5834 29.9238 36.7852 27.1201 33.3334 27.1201C31.4281 27.1201 29.7218 27.9743 28.5755 29.3215L22.7942 26.2727C22.8746 25.8719 22.9167 25.4572 22.9167 25.0326C22.9167 24.5925 22.8714 24.1629 22.7852 23.7483L28.5468 20.71C29.6933 22.0766 31.4121 22.9452 33.3334 22.9452ZM33.3334 20.5317C35.4548 20.5317 37.1746 18.8086 37.1746 16.683C37.1746 14.5574 35.4548 12.8343 33.3334 12.8343C31.212 12.8343 29.4923 14.5574 29.4923 16.683C29.4923 18.8086 31.212 20.5317 33.3334 20.5317ZM16.6667 28.8813C18.7882 28.8813 20.5079 27.1582 20.5079 25.0326C20.5079 22.9071 18.7882 21.184 16.6667 21.184C14.5453 21.184 12.8256 22.9071 12.8256 25.0326C12.8256 27.1582 14.5453 28.8813 16.6667 28.8813ZM37.1746 33.3823C37.1746 35.5078 35.4548 37.231 33.3334 37.231C31.212 37.231 29.4923 35.5078 29.4923 33.3823C29.4923 31.2567 31.212 29.5336 33.3334 29.5336C35.4548 29.5336 37.1746 31.2567 37.1746 33.3823Z" fill="#262626"/>
</svg>
