<svg width="40" height="40" viewBox="0 0 40 40" fill="none" xmlns="http://www.w3.org/2000/svg">
    <path fill-rule="evenodd" clip-rule="evenodd" d="M28.3334 17.9452C31.7852 17.9452 34.5834 15.1415 34.5834 11.683C34.5834 8.22447 31.7852 5.42078 28.3334 5.42078C24.8816 5.42078 22.0834 8.22447 22.0834 11.683C22.0834 12.3507 22.1877 12.994 22.3809 13.5974L16.8409 16.5189C15.7166 14.8601 13.8187 13.7704 11.6667 13.7704C8.21497 13.7704 5.41675 16.5741 5.41675 20.0326C5.41675 23.4912 8.21497 26.2949 11.6667 26.2949C13.8343 26.2949 15.7441 25.1893 16.8652 23.5103L22.3944 26.4261C22.1926 27.0416 22.0834 27.6991 22.0834 28.3823C22.0834 31.8408 24.8816 34.6445 28.3334 34.6445C31.7852 34.6445 34.5834 31.8408 34.5834 28.3823C34.5834 24.9238 31.7852 22.1201 28.3334 22.1201C26.4281 22.1201 24.7218 22.9743 23.5755 24.3215L17.7942 21.2727C17.8746 20.8719 17.9167 20.4572 17.9167 20.0326C17.9167 19.5925 17.8714 19.1629 17.7852 18.7483L23.5468 15.71C24.6933 17.0766 26.4121 17.9452 28.3334 17.9452ZM28.3334 15.5317C30.4548 15.5317 32.1746 13.8086 32.1746 11.683C32.1746 9.55745 30.4548 7.83434 28.3334 7.83434C26.212 7.83434 24.4923 9.55745 24.4923 11.683C24.4923 13.8086 26.212 15.5317 28.3334 15.5317ZM11.6667 23.8813C13.7882 23.8813 15.5079 22.1582 15.5079 20.0326C15.5079 17.9071 13.7882 16.184 11.6667 16.184C9.54534 16.184 7.8256 17.9071 7.8256 20.0326C7.8256 22.1582 9.54534 23.8813 11.6667 23.8813ZM32.1746 28.3823C32.1746 30.5078 30.4548 32.231 28.3334 32.231C26.212 32.231 24.4923 30.5078 24.4923 28.3823C24.4923 26.2567 26.212 24.5336 28.3334 24.5336C30.4548 24.5336 32.1746 26.2567 32.1746 28.3823Z" fill="#262626"/>
</svg>
