<svg width="56" height="56" viewBox="0 0 56 56" fill="none" xmlns="http://www.w3.org/2000/svg">
    <rect width="56" height="56" rx="5" fill="#143F80" fill-opacity="0.3"/>
    <path d="M32.6685 26.5413C33.1393 26.0714 33.14 25.3088 32.67 24.838C32.2001 24.3672 31.4375 24.3665 30.9667 24.8365L25.4914 30.3022L23.0006 27.8158C22.5298 27.3458 21.7672 27.3465 21.2972 27.8173C20.8273 28.2881 20.828 29.0507 21.2988 29.5206L25.4914 33.7058L32.6685 26.5413Z" fill="#262626"/>
    <path fill-rule="evenodd" clip-rule="evenodd" d="M22.052 11.7566C21.3329 11.7566 20.7499 12.3396 20.7499 13.0587V13.4493H17.039C15.6547 13.4493 14.5325 14.5715 14.5325 15.9558V41.7371C14.5325 43.1214 15.6547 44.2436 17.039 44.2436H36.9609C38.3452 44.2436 39.4674 43.1214 39.4674 41.7371V15.9558C39.4674 14.5715 38.3452 13.4493 36.9609 13.4493H33.2499V13.0587C33.2499 12.3396 32.667 11.7566 31.9478 11.7566H22.052ZM22.3775 13.3842V15.9558H31.6223V13.3842H22.3775ZM33.2499 16.2813V15.8582H36.9609C37.0148 15.8582 37.0585 15.9019 37.0585 15.9558V41.7371C37.0585 41.791 37.0148 41.8347 36.9609 41.8347H17.039C16.985 41.8347 16.9413 41.791 16.9413 41.7371V15.9558C16.9413 15.9019 16.985 15.8582 17.039 15.8582H20.7499V16.2813C20.7499 17.0005 21.3329 17.5834 22.052 17.5834H31.9478C32.667 17.5834 33.2499 17.0005 33.2499 16.2813Z" fill="#262626"/>
</svg>
