<svg width="40" height="40" viewBox="0 0 40 40" fill="none" xmlns="http://www.w3.org/2000/svg">
    <path d="M25.6685 18.5413C26.1393 18.0714 26.14 17.3088 25.67 16.838C25.2001 16.3672 24.4375 16.3665 23.9667 16.8365L18.4914 22.3022L16.0006 19.8158C15.5298 19.3458 14.7672 19.3465 14.2972 19.8173C13.8273 20.2881 13.828 21.0507 14.2988 21.5206L18.4914 25.7058L25.6685 18.5413Z" fill="#262626"/>
    <path fill-rule="evenodd" clip-rule="evenodd" d="M15.052 3.75659C14.3329 3.75659 13.7499 4.33955 13.7499 5.05868V5.4493H10.039C8.65467 5.4493 7.53247 6.5715 7.53247 7.95581V33.7371C7.53247 35.1214 8.65467 36.2436 10.039 36.2436H29.9609C31.3452 36.2436 32.4674 35.1214 32.4674 33.7371V7.95581C32.4674 6.5715 31.3452 5.4493 29.9609 5.4493H26.2499V5.05868C26.2499 4.33955 25.667 3.75659 24.9478 3.75659H15.052ZM15.3775 5.3842V7.95581H24.6223V5.3842H15.3775ZM26.2499 8.28133V7.85815H29.9609C30.0148 7.85815 30.0585 7.90188 30.0585 7.95581V33.7371C30.0585 33.791 30.0148 33.8347 29.9609 33.8347H10.039C9.98505 33.8347 9.94132 33.791 9.94132 33.7371V7.95581C9.94132 7.90188 9.98505 7.85815 10.039 7.85815H13.7499V8.28133C13.7499 9.00045 14.3329 9.58341 15.052 9.58341H24.9478C25.667 9.58341 26.2499 9.00045 26.2499 8.28133Z" fill="#262626"/>
</svg>
