<svg width="50" height="50" viewBox="0 0 50 50" fill="none" xmlns="http://www.w3.org/2000/svg">
    <circle cx="25" cy="25" r="25" fill="#2165CC" fill-opacity="0.3"/>
    <path fill-rule="evenodd" clip-rule="evenodd" d="M24.9918 7.47815L42.0947 16.3641L33.8135 20.633L42.0946 24.9355L33.7845 29.2194L42.0946 33.537L24.9917 42.3535L7.90796 33.537L16.2088 29.2194L7.90796 24.9355L16.1798 20.633L7.908 16.3641L24.9918 7.47815ZM19.358 30.8447L14.2012 33.5269L24.9925 39.096L35.7958 33.5269L30.6325 30.8443L24.9917 33.7521L19.358 30.8447ZM30.6615 22.2579L35.7958 24.9254L24.9925 30.4946L14.2012 24.9254L19.3291 22.2582L24.9918 25.1806L30.6615 22.2579ZM24.9925 10.741L14.2013 16.354L24.9925 21.9231L35.7958 16.354L24.9925 10.741Z" fill="#262626"/>
</svg>
