<svg width="40" height="40" viewBox="0 0 40 40" fill="none" xmlns="http://www.w3.org/2000/svg">
    <path fill-rule="evenodd" clip-rule="evenodd" d="M19.9918 2.47815L37.0947 11.3641L28.8135 15.633L37.0946 19.9355L28.7845 24.2194L37.0946 28.537L19.9917 37.3535L2.90796 28.537L11.2088 24.2194L2.90796 19.9355L11.1798 15.633L2.908 11.3641L19.9918 2.47815ZM14.358 25.8447L9.20122 28.5269L19.9925 34.096L30.7958 28.5269L25.6325 25.8443L19.9917 28.7521L14.358 25.8447ZM25.6615 17.2579L30.7958 19.9254L19.9925 25.4946L9.20122 19.9254L14.3291 17.2582L19.9918 20.1806L25.6615 17.2579ZM19.9925 5.74105L9.20126 11.354L19.9925 16.9231L30.7958 11.354L19.9925 5.74105Z" fill="#262626"/>
</svg>
