<svg width="40" height="40" viewBox="0 0 40 40" fill="none" xmlns="http://www.w3.org/2000/svg">
    <path fill-rule="evenodd" clip-rule="evenodd" d="M5.35156 5C2.54699 5 0.273438 7.27355 0.273438 10.0781V29.9219C0.273438 32.7264 2.54699 35 5.35156 35H24.9609C27.7655 35 30.0391 32.7264 30.0391 29.9219V27.9661L35.0133 30.8292C37.0967 32.0283 39.6973 30.5246 39.6973 28.1208V11.8401C39.6973 9.43633 37.0967 7.93259 35.0133 9.13173L30.0391 11.9949V10.0781C30.0391 7.27355 27.7655 5 24.9609 5H5.35156ZM27.1484 10.0781C27.1484 8.87 26.1691 7.89062 24.9609 7.89062H5.35156C4.14344 7.89062 3.16406 8.87 3.16406 10.0781V29.9219C3.16406 31.13 4.14344 32.1094 5.35156 32.1094H24.9609C26.1691 32.1094 27.1484 31.13 27.1484 29.9219V24.7461C27.1484 23.9697 27.9856 23.4815 28.6614 23.8638L29.9106 24.5706L29.9149 24.5703L30.0391 24.6308L36.4553 28.3239C36.6116 28.4139 36.8066 28.3011 36.8066 28.1208V11.8401C36.8066 11.6598 36.6116 11.5471 36.4553 11.637L30.1105 15.289L30.1172 15.293L28.6614 16.1167C28.0085 16.486 27.2051 16.043 27.1513 15.3125H27.1484V10.0781Z" fill="black"/>
</svg>
