<svg width="56" height="56" viewBox="0 0 56 56" fill="none" xmlns="http://www.w3.org/2000/svg">
    <rect width="56" height="56" rx="5" fill="#75ACFF" fill-opacity="0.3"/>
    <path fill-rule="evenodd" clip-rule="evenodd" d="M13.3516 13C10.547 13 8.27344 15.2736 8.27344 18.0781V37.9219C8.27344 40.7264 10.547 43 13.3516 43H32.9609C35.7655 43 38.0391 40.7264 38.0391 37.9219V35.9661L43.0133 38.8292C45.0967 40.0283 47.6973 38.5246 47.6973 36.1208V19.8401C47.6973 17.4363 45.0967 15.9326 43.0133 17.1317L38.0391 19.9949V18.0781C38.0391 15.2736 35.7655 13 32.9609 13H13.3516ZM35.1484 18.0781C35.1484 16.87 34.1691 15.8906 32.9609 15.8906H13.3516C12.1434 15.8906 11.1641 16.87 11.1641 18.0781V37.9219C11.1641 39.13 12.1434 40.1094 13.3516 40.1094H32.9609C34.1691 40.1094 35.1484 39.13 35.1484 37.9219V32.7461C35.1484 31.9697 35.9856 31.4815 36.6614 31.8638L37.9106 32.5706L37.9149 32.5703L38.0391 32.6308L44.4553 36.3239C44.6116 36.4139 44.8066 36.3011 44.8066 36.1208V19.8401C44.8066 19.6598 44.6116 19.5471 44.4553 19.637L38.1105 23.289L38.1172 23.293L36.6614 24.1167C36.0085 24.486 35.2051 24.043 35.1513 23.3125H35.1484V18.0781Z" fill="black"/>
</svg>
