<svg width="40" height="40" viewBox="0 0 40 40" fill="none" xmlns="http://www.w3.org/2000/svg">
    <path fill-rule="evenodd" clip-rule="evenodd" d="M5.48193 8.63936C5.48193 6.8955 6.89562 5.48181 8.63949 5.48181H31.3608C33.1047 5.48181 34.5184 6.8955 34.5184 8.63936V23.0274C34.5184 24.7713 33.1047 26.1849 31.3608 26.1849H8.63949C6.89562 26.1849 5.48193 24.7713 5.48193 23.0274V8.63936ZM8.63949 7.89067C8.22599 7.89067 7.89079 8.22587 7.89079 8.63936V23.0274C7.89079 23.4409 8.22599 23.7761 8.63949 23.7761H31.3608C31.7743 23.7761 32.1095 23.4409 32.1095 23.0274V8.63936C32.1095 8.22587 31.7743 7.89067 31.3608 7.89067H8.63949Z" fill="#262626"/>
    <rect x="25.8594" y="21.4324" width="4.55729" height="1.6276" fill="#262626"/>
    <path d="M5.41675 34.5834C5.41675 33.253 6.49523 32.1746 7.8256 32.1746H10.0066C11.337 32.1746 12.4154 33.253 12.4154 34.5834V34.5834H5.41675V34.5834Z" fill="#262626"/>
    <path d="M27.5847 34.5834C27.5847 33.253 28.6632 32.1746 29.9936 32.1746H32.1746C33.5049 32.1746 34.5834 33.253 34.5834 34.5834V34.5834H27.5847V34.5834Z" fill="#262626"/>
    <rect x="29.8633" y="34.5834" width="8.72396" height="2.40885" transform="rotate(-90 29.8633 34.5834)" fill="#262626"/>
    <rect x="7.69531" y="34.5834" width="8.72396" height="2.40885" transform="rotate(-90 7.69531 34.5834)" fill="#262626"/>
    <path fill-rule="evenodd" clip-rule="evenodd" d="M26.8003 13.1245C26.602 13.2979 26.3775 13.4891 26.1615 13.6325C25.5849 14.0151 25.0534 14.5023 24.4646 15.0427L24.4589 15.0479C23.8899 15.57 23.2644 16.1441 22.5618 16.602C22.4655 16.6648 22.3794 16.7251 22.2837 16.792C22.2396 16.8229 22.1935 16.8552 22.1434 16.8898C21.9967 16.9912 21.8258 17.1052 21.6383 17.2042C21.2414 17.4137 20.7639 17.559 20.1737 17.4767C19.8039 17.4252 19.5471 17.2117 19.388 17.0059C19.2382 16.812 19.1467 16.5917 19.0861 16.4109C18.9813 16.0982 18.9117 15.717 18.8555 15.4094C18.8479 15.3676 18.8405 15.3272 18.8333 15.2885C18.7936 15.0743 18.7586 14.9055 18.7247 14.7757C18.3468 14.9163 17.9698 15.1241 17.5748 15.3824C17.2351 15.6044 16.9217 15.8355 16.589 16.0809C16.3935 16.225 16.1913 16.3741 15.9731 16.5292C15.4571 16.8961 14.9514 17.2832 14.432 17.6808C14.2505 17.8197 14.0673 17.96 13.8814 18.1011C13.1734 18.6384 12.438 19.1791 11.6701 19.6515C11.2873 19.8871 10.786 19.7677 10.5505 19.3849C10.315 19.0021 10.4344 18.5008 10.8171 18.2653C11.5142 17.8364 12.1976 17.3357 12.8973 16.8046C13.0711 16.6727 13.2468 16.5383 13.4239 16.4027C13.9497 16.0001 14.4885 15.5877 15.03 15.2027C15.1991 15.0825 15.3794 14.9498 15.5661 14.8124C15.927 14.5467 16.3115 14.2637 16.6841 14.02C17.2716 13.636 17.929 13.2788 18.6724 13.0883C19.0013 13.0041 19.344 13.0516 19.6347 13.2505C19.8883 13.4241 20.0336 13.6665 20.119 13.8481C20.2855 14.202 20.3715 14.6572 20.4336 14.9914C20.4414 15.0333 20.4489 15.0741 20.4562 15.1138C20.514 15.427 20.5592 15.6721 20.6191 15.8621C20.7016 15.8469 20.7838 15.8149 20.8784 15.7649C20.9771 15.7128 21.0832 15.6441 21.2181 15.5509C21.2513 15.5279 21.2879 15.5023 21.3267 15.4751C21.4314 15.4018 21.553 15.3167 21.6731 15.2384C22.2465 14.8647 22.7768 14.3825 23.3641 13.8435L23.4034 13.8074C23.9619 13.2948 24.5755 12.7315 25.2616 12.2763C25.3766 12.2 25.5272 12.0757 25.7288 11.8993C25.778 11.8563 25.8303 11.8101 25.8849 11.7619C26.037 11.6276 26.2063 11.478 26.3727 11.3402C26.6007 11.1512 26.8612 10.9515 27.1335 10.7967C27.3954 10.6477 27.7454 10.4949 28.1381 10.4949C28.5876 10.4949 28.9519 10.8592 28.9519 11.3087C28.9519 11.7574 28.5888 12.1213 28.1403 12.1225C28.141 12.1225 28.1413 12.1225 28.1413 12.1225C28.1414 12.1232 28.0797 12.1309 27.9382 12.2114C27.7886 12.2965 27.6134 12.4259 27.4113 12.5934C27.266 12.7137 27.1264 12.837 26.9809 12.9655C26.9219 13.0176 26.862 13.0705 26.8003 13.1245ZM18.6321 14.5145C18.6321 14.5144 18.6331 14.5157 18.6348 14.5187C18.6329 14.516 18.6321 14.5145 18.6321 14.5145Z" fill="#262626"/>
</svg>
