<svg width="25" height="32" viewBox="0 0 25 32" fill="none" xmlns="http://www.w3.org/2000/svg">
    <path d="M21.1589 22.0704H19.5312V21.0938C19.5312 20.573 19.7917 20.3125 20.3125 20.3125H20.3776C20.8984 20.3125 21.1589 20.573 21.1589 21.0938V22.0704ZM14.974 19.987C14.4531 19.987 14.1927 20.204 14.1927 20.6381V25.2605C14.1927 25.6945 14.4531 25.9115 14.974 25.9115C15.4948 25.9115 15.7552 25.6945 15.7552 25.2605V20.6381C15.7552 20.204 15.4948 19.987 14.974 19.987ZM25 17.3829V26.237C25 27.3221 24.5985 28.2335 23.7956 28.9714C22.9926 29.7092 22.0269 30.0782 20.8984 30.0782H4.10156C2.97309 30.0782 2.00738 29.7092 1.20443 28.9714C0.401476 28.2335 0 27.3221 0 26.237V17.3829C0 16.3412 0.401476 15.4406 1.20443 14.681C2.00738 13.9215 2.97309 13.5417 4.10156 13.5417H20.8984C22.0269 13.5417 22.9926 13.9215 23.7956 14.681C24.5985 15.4406 25 16.3412 25 17.3829ZM5.20833 27.2136V17.9037H7.29167V16.5365L1.75781 16.4714V17.8386H3.45052V27.2136H5.20833ZM11.4583 19.2709H9.70052V25.4558C9.61372 25.6728 9.46181 25.8138 9.24479 25.8789C9.02778 25.944 8.85417 25.8247 8.72396 25.5209V24.2839L8.65885 19.2709H6.96615V25.7813C7.05295 26.5191 7.20486 26.9532 7.42187 27.0834C7.8125 27.3438 8.30078 27.3546 8.88672 27.1159C9.47266 26.8772 9.87413 26.5625 10.0911 26.1719V27.2136H11.4583V19.2709ZM16.9922 25V20.8334C16.9922 20.0087 16.7318 19.4445 16.2109 19.1407C15.6901 18.8368 15.0391 18.9888 14.2578 19.5964V16.5365H12.5V27.1485H13.9323L14.0625 26.4323C14.974 27.2136 15.701 27.4306 16.2435 27.0834C16.786 26.7362 17.0356 26.0417 16.9922 25ZM22.4609 24.4141H21.1589V25.3256C21.1589 25.803 20.9201 26.0417 20.4427 26.0417H20.1823C19.7049 26.0417 19.4661 25.803 19.4661 25.3256V23.4375H22.4609V22.3308C22.4609 21.2023 22.4392 20.4862 22.3958 20.1823C22.2656 19.4879 21.799 19.0539 20.9961 18.8802C20.1931 18.7066 19.5312 18.8151 19.0104 19.2058C18.6632 19.5096 18.4245 19.8351 18.2943 20.1823C18.1641 20.6164 18.099 21.2023 18.099 21.9401V24.4141C18.099 26.02 18.7066 26.9532 19.9219 27.2136C20.9635 27.4306 21.7231 27.0834 22.2005 26.1719C22.5043 25.6945 22.5911 25.1085 22.4609 24.4141ZM15.7552 11.0026C15.842 11.2197 15.9939 11.3933 16.2109 11.5235C16.3845 11.6537 16.6233 11.7188 16.9271 11.7188C17.1875 11.7188 17.4045 11.6537 17.5781 11.5235C17.7517 11.3933 17.9036 11.198 18.0339 10.9375V11.5886H19.987V3.32035H18.4245V9.76567C18.4245 10.1997 18.2075 10.4167 17.7734 10.4167C17.3828 10.4167 17.1875 10.1997 17.1875 9.76567V3.32035H15.5599V8.91931C15.5599 9.70056 15.5816 10.178 15.625 10.3516C15.625 10.5252 15.6684 10.7422 15.7552 11.0026ZM9.89583 6.38025C9.89583 5.599 9.96094 4.96966 10.0911 4.49223C10.2214 4.1016 10.4601 3.75438 10.8073 3.45056C11.1545 3.19014 11.5885 3.05994 12.1094 3.05994C12.5868 3.05994 12.9774 3.14674 13.2812 3.32035C13.5851 3.45056 13.8238 3.66758 13.9974 3.97139C14.171 4.18841 14.3012 4.47053 14.388 4.81775C14.4314 5.03476 14.4531 5.49049 14.4531 6.18494V8.26827C14.4531 9.13632 14.4314 9.70056 14.388 9.96098C14.3446 10.2648 14.2144 10.5903 13.9974 10.9375C13.8672 11.1546 13.6285 11.3933 13.2812 11.6537C12.934 11.7839 12.5868 11.849 12.2396 11.849C11.8056 11.849 11.4149 11.7839 11.0677 11.6537C10.7639 11.5235 10.5252 11.3282 10.3516 11.0677C10.178 10.7205 10.0694 10.4167 10.026 10.1563C9.93924 9.72226 9.89583 9.17973 9.89583 8.52869V6.38025ZM11.3932 9.63546C11.3932 9.85247 11.4692 10.0478 11.6211 10.2214C11.773 10.395 11.9575 10.4818 12.1745 10.4818C12.6953 10.4818 12.9557 10.1997 12.9557 9.63546V5.27348C12.9557 4.70924 12.6953 4.42712 12.1745 4.42712C11.6536 4.42712 11.3932 4.70924 11.3932 5.27348V9.63546ZM6.05469 11.849H7.8776V5.53389L10.026 0.130249H8.07292L6.90104 4.16671L5.72917 0.130249H3.77604L6.05469 5.53389V11.849Z" fill="#D4E8FF"/>
</svg>
