<svg width="158" height="118" viewBox="0 0 158 118" fill="none" xmlns="http://www.w3.org/2000/svg">
    <g clip-path="url(#clip0)">
        <path d="M56.022 71.1281C55.6478 71.1281 55.2697 71.1221 54.8987 71.1105L54.9071 70.8403C55.4399 70.857 55.9837 70.8616 56.519 70.8542L56.5227 71.1246C56.3561 71.1269 56.1892 71.128 56.022 71.1281ZM58.1459 71.0653L58.1301 70.7954C58.6637 70.7639 59.2042 70.7195 59.7365 70.6636L59.7647 70.9325C59.2283 70.9889 58.6837 71.0337 58.1459 71.0653ZM53.2769 71.0232C52.7388 70.9819 52.1951 70.9277 51.6606 70.862L51.6936 70.5936C52.2239 70.6588 52.7635 70.7126 53.2975 70.7536L53.2769 71.0232ZM61.3756 70.7258L61.3351 70.4586C61.8653 70.3779 62.3996 70.2842 62.9227 70.18L62.9753 70.4452C62.4481 70.5502 61.9099 70.6446 61.3756 70.7258ZM50.0536 70.6269C49.522 70.5366 48.9855 70.4328 48.4588 70.3182L48.516 70.0538C49.0387 70.1676 49.5711 70.2706 50.0987 70.3602L50.0536 70.6269ZM64.5608 70.0912L64.4959 69.8287C65.0164 69.6996 65.5398 69.557 66.0515 69.4049L66.1282 69.6642C65.6125 69.8176 65.0852 69.9612 64.5608 70.0912ZM46.88 69.9361C46.3585 69.7971 45.8338 69.6442 45.3203 69.4813L45.4016 69.2236C45.9112 69.3851 46.4319 69.5368 46.9493 69.6747L46.88 69.9361ZM67.6743 69.1652L67.5858 68.9098C68.0908 68.7338 68.5987 68.5435 69.0957 68.3441L69.1959 68.5953C68.6952 68.7961 68.1833 68.9879 67.6743 69.1652H67.6743ZM43.7792 68.9534C43.2728 68.7668 42.7632 68.5654 42.2648 68.3549L42.3695 68.1056C42.8641 68.3145 43.3698 68.5143 43.8724 68.6996L43.7792 68.9534ZM70.6862 67.957L70.5745 67.7109C71.0595 67.49 71.5471 67.2541 72.0235 67.0099L72.1463 67.2508C71.6662 67.4968 71.1749 67.7344 70.6862 67.957H70.6862ZM73.5726 66.4779L73.4391 66.2431C73.9042 65.977 74.3685 65.6973 74.8189 65.4117L74.963 65.6401C74.5092 65.928 74.0415 66.2099 73.5727 66.4779H73.5726ZM76.314 64.7393L76.1597 64.5177C76.5976 64.2109 77.0347 63.8896 77.4588 63.5629L77.6231 63.7774C77.196 64.1066 76.7555 64.4302 76.314 64.7393ZM35.1963 64.3584C34.7609 64.0413 34.3259 63.7092 33.9034 63.371L34.0717 63.1597C34.491 63.4953 34.9227 63.8249 35.3548 64.1395L35.1963 64.3584ZM78.8873 62.7566L78.7135 62.5498C79.1217 62.2044 79.5279 61.8446 79.9211 61.4801L80.1042 61.6787C79.7081 62.046 79.2987 62.4086 78.8873 62.7566H78.8873ZM32.657 62.3258C32.2515 61.9698 31.8486 61.5995 31.4596 61.2251L31.6464 61.03C32.0325 61.4015 32.4323 61.7691 32.8347 62.1224L32.657 62.3258ZM81.2712 60.5461L81.0792 60.3562C81.4555 59.9739 81.8278 59.5783 82.1854 59.1804L82.3859 59.3613C82.0255 59.7624 81.6505 60.1609 81.2712 60.5461ZM30.3137 60.0712C29.9416 59.679 29.5742 59.2736 29.2215 58.8664L29.4253 58.6892C29.7752 59.0934 30.1399 59.4956 30.5092 59.8848L30.3137 60.0712ZM83.4456 58.1267L83.2373 57.9551C83.5772 57.5403 83.912 57.1123 84.2325 56.6827L84.4485 56.8446C84.1256 57.2775 83.7883 57.7089 83.4457 58.1267L83.4456 58.1267ZM28.1854 57.6133C27.8513 57.1901 27.5223 56.7531 27.2075 56.3145L27.4265 56.1566C27.7389 56.5917 28.0653 57.0254 28.397 57.4456L28.1854 57.6133ZM85.3919 55.5177L85.1688 55.3659C85.4697 54.9217 85.7643 54.4647 86.0445 54.0071L86.2745 54.1487C85.992 54.6097 85.695 55.0703 85.3919 55.5177L85.3919 55.5177ZM26.2901 54.9728C25.9961 54.5211 25.7084 54.0563 25.4349 53.5909L25.6673 53.4536C25.9388 53.9153 26.2243 54.3768 26.516 54.8249L26.2901 54.9728ZM87.0936 52.7402L86.8575 52.6095C87.1165 52.1396 87.3681 51.6571 87.6056 51.1752L87.8475 51.2951C87.6083 51.7805 87.3545 52.2668 87.0936 52.7402ZM88.5343 49.8165L88.2872 49.7079C88.5022 49.2158 88.7086 48.7117 88.9008 48.2099L89.1526 48.3068C88.959 48.8126 88.7509 49.3205 88.5343 49.8165ZM23.261 49.2329C23.0542 48.7354 22.8562 48.2263 22.6724 47.7197L22.926 47.6273C23.1083 48.13 23.3048 48.6351 23.51 49.1289L23.261 49.2329ZM89.7009 46.7697L89.4448 46.6847C89.6132 46.1761 89.772 45.6564 89.9169 45.1396L90.1767 45.2128C90.0306 45.7335 89.8704 46.2573 89.7009 46.7697ZM22.1528 46.177C21.9922 45.6616 21.8414 45.1351 21.7045 44.6119L21.9654 44.5433C22.1013 45.0625 22.251 45.585 22.4103 46.0965L22.1528 46.177ZM90.5802 43.6355L90.3174 43.5742C90.4382 43.053 90.5486 42.5207 90.6456 41.9924L90.9109 42.0412C90.8132 42.5738 90.7019 43.1101 90.5802 43.6355V43.6355ZM21.3288 43.0278C21.2163 42.4996 21.1145 41.9614 21.0262 41.4281L21.2923 41.3837C21.38 41.9131 21.481 42.4471 21.5927 42.9713L21.3288 43.0278ZM91.1681 40.4337L90.9007 40.397C90.9732 39.8673 91.0345 39.3272 91.0828 38.7916L91.3516 38.8159C91.3028 39.3557 91.241 39.8999 91.1681 40.4337V40.4337ZM20.7972 39.8162C20.7335 39.2809 20.6813 38.7356 20.6418 38.1956L20.911 38.1758C20.95 38.7118 21.0019 39.2529 21.0651 39.7843L20.7972 39.8162ZM91.4614 37.1916L91.1919 37.1795C91.2159 36.6436 91.2281 36.1001 91.2281 35.564H91.4979C91.4979 36.1042 91.4857 36.6518 91.4614 37.1916ZM20.5601 36.5694C20.5509 36.2378 20.5462 35.8995 20.5461 35.564C20.5461 35.3559 20.5479 35.1482 20.5515 34.9409L20.8213 34.9456C20.8177 35.1514 20.8159 35.3575 20.8159 35.564C20.816 35.897 20.8207 36.2328 20.8298 36.562L20.5601 36.5694ZM20.8853 33.3311L20.616 33.3142C20.6497 32.7738 20.6962 32.228 20.7541 31.6919L21.0223 31.721C20.9648 32.2531 20.9187 32.7947 20.8853 33.3311H20.8853ZM91.0539 31.6811C91.0001 31.1479 90.926 30.888 90.8477 30.3571L91.1146 30.3176C91.1934 30.8525 91.2609 31.2608 91.3153 31.798L91.0539 31.6811ZM21.2323 30.1191L20.9657 30.0778C21.0484 29.5427 21.1444 29.0035 21.2511 28.4748L21.5155 28.5284C21.4096 29.0531 21.3143 29.5882 21.2323 30.1191ZM90.5754 28.7647C90.4725 28.2372 90.3565 27.7061 90.2303 27.1863L90.4924 27.1224C90.6196 27.6462 90.7365 28.1813 90.8402 28.7128L90.5754 28.7647ZM21.8713 26.9525L21.6096 26.8868C21.7406 26.363 21.8857 25.8348 22.0409 25.3169L22.2992 25.3947C22.1453 25.9086 22.0013 26.4328 21.8713 26.9525ZM89.813 25.6255C89.6626 25.1106 89.4982 24.5926 89.3244 24.0858L89.5794 23.9978C89.7546 24.5085 89.9203 25.0306 90.072 25.5494L89.813 25.6255ZM22.8 23.8541L22.5455 23.7644C22.7248 23.2531 22.9184 22.7395 23.1208 22.2376L23.371 22.339C23.17 22.837 22.9779 23.3468 22.8 23.8541ZM88.7654 22.5702C88.5686 22.0724 88.3578 21.5729 88.1389 21.0855L88.3849 20.9744C88.6056 21.4656 88.8179 21.969 89.0162 22.4705L88.7654 22.5702ZM24.0108 20.8524L23.7657 20.7395C23.991 20.2476 24.2308 19.7543 24.4785 19.2734L24.7182 19.3974C24.4724 19.8747 24.2345 20.3642 24.0108 20.8524ZM87.445 19.6306C87.2036 19.1532 86.9478 18.6747 86.6847 18.2088L86.9194 18.0755C87.1846 18.5451 87.4423 19.0272 87.6856 19.5083L87.445 19.6306ZM25.4915 17.9769L25.2577 17.8419C25.5268 17.3735 25.8106 16.9045 26.1013 16.4483L26.3287 16.5938C26.0402 17.0466 25.7585 17.512 25.4915 17.9769ZM85.8601 16.8227C85.575 16.3678 85.2765 15.9146 84.9729 15.4756L85.1945 15.3215C85.5005 15.7638 85.8013 16.2205 86.0885 16.6789L85.8601 16.8227ZM27.228 15.2509L27.0075 15.0951C27.3185 14.6529 27.6436 14.2122 27.9741 13.7851L28.1873 13.9509C27.8593 14.3748 27.5365 14.8121 27.228 15.2509ZM84.025 14.1702C83.6999 13.7433 83.3614 13.319 83.0185 12.9089L83.2253 12.7352C83.5707 13.1484 83.9118 13.5759 84.2394 14.0061L84.025 14.1702ZM29.2045 12.6964L28.9992 12.521C29.3482 12.1101 29.712 11.701 30.0803 11.3053L30.2775 11.4897C29.912 11.8825 29.551 12.2885 29.2045 12.6964ZM81.9557 11.6946C81.5933 11.2992 81.2174 10.9073 80.8385 10.5298L81.0287 10.338C81.4105 10.7183 81.7892 11.1132 82.1543 11.5116L81.9557 11.6946ZM31.4039 10.3337L31.2152 10.1404C31.601 9.76206 32.0002 9.38801 32.4016 9.0287L32.5813 9.23048C32.1829 9.58703 31.7867 9.95823 31.4039 10.3337ZM79.6697 9.41694C79.2725 9.05583 78.8624 8.69968 78.4509 8.35838L78.623 8.15C79.0375 8.49388 79.4507 8.85273 79.8509 9.21661L79.6697 9.41694ZM33.8074 8.18209L33.6371 7.97239C34.0543 7.63176 34.4855 7.2958 34.9188 6.97385L35.0795 7.19108C34.6494 7.51066 34.2215 7.84403 33.8074 8.18209ZM36.3948 6.25957L36.2443 6.0352C36.6908 5.73399 37.1506 5.43904 37.6108 5.15836L37.7509 5.38946C37.2943 5.66796 36.838 5.96073 36.3948 6.25957ZM39.1449 4.5826L39.0154 4.3453C39.4879 4.08614 39.9723 3.8347 40.4552 3.59786L40.5738 3.84085C40.0946 4.07584 39.6138 4.32536 39.1449 4.5826ZM71.7032 3.956C71.2232 3.71625 70.7314 3.48463 70.2416 3.26759L70.3507 3.02026C70.8443 3.23894 71.3399 3.47235 71.8236 3.71394L71.7032 3.956ZM42.0345 3.16571L41.9273 2.91758C42.421 2.70305 42.926 2.49731 43.4283 2.30603L43.5241 2.55891C43.0256 2.74868 42.5245 2.95284 42.0345 3.16571ZM68.7496 2.6472C68.2501 2.45301 67.7388 2.26773 67.23 2.09659L67.3158 1.84014C67.8285 2.01267 68.3437 2.19933 68.8471 2.3951L68.7496 2.6472ZM45.0437 2.0202L44.9597 1.76322C45.4723 1.59472 45.9954 1.43606 46.5143 1.29179L46.5864 1.55233C46.0715 1.69554 45.5524 1.85295 45.0437 2.0202ZM65.6903 1.61809C65.1758 1.47105 64.651 1.33411 64.1305 1.2111L64.1924 0.947915C64.717 1.07185 65.2457 1.20984 65.7644 1.35795L65.6903 1.61809ZM48.1491 1.15623L48.089 0.892584C48.6146 0.772215 49.1501 0.662544 49.6803 0.566671L49.7283 0.832763C49.202 0.927974 48.6707 1.03679 48.1491 1.15623ZM62.5536 0.876736C62.0283 0.777894 61.4932 0.689944 60.9631 0.615334L61.0006 0.347526C61.5347 0.422731 62.074 0.51134 62.6034 0.61091L62.5536 0.876736ZM51.3207 0.582454L51.285 0.314383C51.819 0.242941 52.3621 0.182855 52.8992 0.135977L52.9226 0.405369C52.3896 0.451982 51.8507 0.511539 51.3207 0.582454ZM59.3623 0.42729C58.8309 0.377109 58.29 0.338418 57.7545 0.312468L57.7677 0.0422894C58.3071 0.0685027 58.8521 0.10746 59.3875 0.158042L59.3623 0.42729ZM54.5313 0.301639L54.5199 0.0314607C55.0158 0.0107281 55.5211 0.000163038 56.022 3.05176e-05L56.1441 0.000229374L56.1433 0.270678L56.022 0.270479C55.5249 0.270604 55.0233 0.281103 54.5313 0.301636V0.301639Z" fill="#002660"/>
        <path d="M99.4265 12.739V100.391C99.4255 101.436 99.0111 102.437 98.2743 103.175C97.5376 103.913 96.5388 104.327 95.4972 104.328H60.0011C59.4851 104.329 58.9739 104.228 58.497 104.03C58.02 103.833 57.5866 103.543 57.2216 103.177C56.8566 102.811 56.5671 102.377 56.3698 101.899C56.1725 101.421 56.0712 100.909 56.0718 100.391V12.739C56.0717 12.2217 56.1733 11.7094 56.3708 11.2315C56.5682 10.7535 56.8577 10.3193 57.2226 9.9535C57.5874 9.58771 58.0206 9.29756 58.4974 9.09962C58.9741 8.90168 59.4851 8.79982 60.0011 8.79987H65.313V9.48275C65.3129 10.3429 65.6537 11.1679 66.2602 11.7763C66.8668 12.3846 67.6897 12.7265 68.5477 12.7268H86.6013C87.2919 12.7283 87.9646 12.5063 88.5194 12.0939C88.6315 12.0122 88.7379 11.9227 88.8377 11.8262C89.1537 11.5237 89.4052 11.16 89.5767 10.7572C89.7483 10.3543 89.8365 9.92077 89.8359 9.48275V8.79987H95.4972C96.0133 8.79971 96.5243 8.90149 97.0011 9.09939C97.4779 9.29729 97.9111 9.58743 98.276 9.95324C98.6409 10.3191 98.9303 10.7534 99.1278 11.2313C99.3252 11.7093 99.4267 12.2216 99.4265 12.739Z" fill="#002660"/>
        <path d="M94.2371 40.3978H61.2615V65.5495H94.2371V40.3978Z" fill="#287EFF"/>
        <path d="M43.8967 36.1599C46.8327 36.2231 49.1682 38.356 49.1682 38.356C49.1682 38.356 46.7436 40.3865 43.8076 40.3234C40.8717 40.2603 38.5361 38.1274 38.5361 38.1274C38.5361 38.1274 40.9608 36.0968 43.8967 36.1599Z" fill="#287EFF"/>
        <path d="M29.1361 26.113C31.7887 27.3763 34.8303 26.5197 34.8303 26.5197C34.8303 26.5197 33.5713 23.6148 30.9187 22.3515C28.2662 21.0882 25.2246 21.9449 25.2246 21.9449C25.2246 21.9449 26.4836 24.8497 29.1361 26.113Z" fill="#287EFF"/>
        <path d="M29.4057 24.8577C32.3302 24.5897 34.89 26.4461 34.89 26.4461C34.89 26.4461 32.7083 28.7369 29.7838 29.0048C26.8593 29.2727 24.2996 27.4164 24.2996 27.4164C24.2996 27.4164 26.4813 25.1256 29.4057 24.8577Z" fill="#002660"/>
        <path d="M40.126 25.3652C39.8457 28.2957 41.686 30.8701 41.686 30.8701C41.686 30.8701 43.9808 28.6932 44.2611 25.7627C44.5414 22.8322 42.7011 20.2578 42.7011 20.2578C42.7011 20.2578 40.4063 22.4347 40.126 25.3652Z" fill="#002660"/>
        <path d="M53.8988 43.3379C52.3649 45.8483 52.8926 48.9711 52.8926 48.9711C52.8926 48.9711 55.9073 48.0235 57.4412 45.5131C58.9751 43.0027 58.4473 39.88 58.4473 39.88C58.4473 39.88 55.4327 40.8275 53.8988 43.3379Z" fill="#002660"/>
        <path d="M49.4487 70.6328L49.6722 70.4813C48.8843 69.335 48.4541 67.9798 48.4362 66.5878C48.4425 64.5517 49.4401 62.6684 50.4049 60.8471C50.584 60.509 50.7625 60.172 50.9342 59.8353C51.655 58.4621 52.2294 57.0165 52.6479 55.5226C54.1444 49.9473 52.671 43.3695 48.7065 37.9269C45.5615 33.6094 40.8733 29.8339 34.374 26.3848L34.2478 26.6238C40.71 30.0533 45.3683 33.8028 48.4886 38.0865C52.4054 43.4635 53.8629 49.9554 52.3873 55.4524C51.9737 56.928 51.4061 58.3558 50.6941 59.7122C50.5229 60.0477 50.3451 60.3834 50.1667 60.7202C49.1865 62.5706 48.1729 64.4839 48.1664 66.5871C48.1843 68.0332 48.6306 69.4415 49.4487 70.6328Z" fill="#002660"/>
        <path d="M21.5629 26.7402C22.9783 26.7402 24.1258 25.5899 24.1258 24.1709C24.1258 22.7519 22.9783 21.6016 21.5629 21.6016C20.1474 21.6016 19 22.7519 19 24.1709C19 25.5899 20.1474 26.7402 21.5629 26.7402Z" fill="#002660"/>
        <path d="M57.6408 65.8761L41.5527 64.5321V40.8775L57.6408 40.0712V65.8761Z" fill="#287EFF"/>
        <path d="M97.8577 65.8761L113.946 64.5321V40.8775L97.8577 40.0712V65.8761Z" fill="#287EFF"/>
        <path d="M83.3414 49.8383C82.8628 49.4238 82.2728 49.16 81.6454 49.0801C81.0179 49.0001 80.3809 49.1075 79.8141 49.3887C79.3218 49.6275 78.7921 49.7794 78.2484 49.8378C78.2348 48.6571 78.451 47.4851 78.8848 46.3874L78.956 46.2033H78.0104L77.9833 46.3028C77.8779 46.691 77.7949 47.0849 77.7347 47.4826C77.6836 47.3102 77.6174 47.1427 77.5369 46.982C76.8736 45.6637 75.3412 45.1245 75.2762 45.1023L75.1456 45.0574L75.1039 45.1894C75.0832 45.255 74.6047 46.8108 75.2679 48.1291C75.7427 49.073 76.663 49.6173 77.1714 49.8586C76.5279 49.8171 75.8991 49.6484 75.3209 49.3624C74.9604 49.1762 74.5549 49.0955 74.1508 49.1297C73.7467 49.1639 73.3604 49.3116 73.0361 49.5557C71.2706 50.9006 70.2581 52.8721 70.2581 54.9646C70.2581 57.7135 72.0338 60.2309 74.7821 61.3779C75.03 61.481 75.2958 61.5339 75.5642 61.5336C75.9369 61.5337 76.3027 61.4331 76.6232 61.2424C77.0492 60.994 77.5331 60.8627 78.0259 60.8617C78.5187 60.8607 79.0031 60.9901 79.4301 61.2367C79.7062 61.4 80.0163 61.4967 80.3361 61.5193C80.6559 61.5419 80.9765 61.4897 81.2727 61.3668C84.0049 60.2153 85.7703 57.7023 85.7703 54.9646C85.7703 53.0051 84.9076 51.1846 83.3414 49.8383ZM78.2169 46.4738H78.564C78.1735 47.5222 77.9745 48.6326 77.9764 49.7518H77.9145C77.8309 48.6498 77.9331 47.5416 78.2169 46.4738ZM75.5088 48.0074C75.0053 47.0066 75.2261 45.8137 75.3237 45.4112C75.7045 45.5714 76.7915 46.1011 77.2959 47.1037C77.7993 48.1044 77.5786 49.297 77.481 49.6997C77.1 49.539 76.0121 49.008 75.5088 48.0074ZM81.1681 61.1175C80.9106 61.2242 80.632 61.2695 80.3541 61.2497C80.0762 61.2299 79.8067 61.1456 79.5669 61.0035C79.0982 60.7323 78.5664 60.5901 78.0253 60.5912C77.4842 60.5924 76.9529 60.7368 76.4854 61.01C76.2462 61.1527 75.9771 61.2376 75.6995 61.2582C75.4219 61.2787 75.1433 61.2343 74.8857 61.1283C72.2384 60.0234 70.5278 57.604 70.5278 54.9646C70.5278 52.9574 71.5016 51.0644 73.1993 49.7711C73.525 49.5245 73.9223 49.3915 74.3305 49.3925C74.632 49.3923 74.9291 49.4644 75.1972 49.6027C75.9361 49.9562 76.7437 50.142 77.5625 50.1469C78.3812 50.1518 79.191 49.9756 79.9341 49.6309C80.4535 49.3733 81.0371 49.2751 81.612 49.3485C82.1868 49.4219 82.7273 49.6637 83.1657 50.0436C84.6713 51.3377 85.5005 53.0853 85.5005 54.9646C85.5005 57.5932 83.7999 60.0082 81.1681 61.1175Z" fill="white"/>
        <path d="M49.5526 47.2826V46.9651H49.6785V45.9761C49.679 45.9028 49.6593 45.8307 49.6217 45.7678C49.5841 45.705 49.53 45.6536 49.4653 45.6195C48.9085 45.3283 48.3102 45.3286 47.6869 45.6209C47.6181 45.6536 47.56 45.7053 47.5194 45.7699C47.4787 45.8344 47.4572 45.9093 47.4573 45.9856V46.9651H47.5832V47.2525C47.1199 47.3827 46.712 47.6616 46.4221 48.0465C46.1321 48.4314 45.9761 48.9011 45.978 49.3834V51.5235L46.2178 51.6036L45.978 51.7638V52.4069L46.2178 52.4871L45.978 52.6473V53.2904L46.2178 53.3705L45.978 53.5308V58.429C45.9785 58.811 46.1301 59.1773 46.3995 59.4475C46.669 59.7177 47.0344 59.8696 47.4155 59.8701H49.5347C49.915 59.8697 50.2795 59.718 50.5484 59.4485C50.8173 59.1789 50.9685 58.8135 50.9689 58.4323V53.5308L50.7292 53.3705L50.9689 53.2904V52.6473L50.7292 52.4871L50.9689 52.4069V51.7638L50.7292 51.6036L50.9689 51.5235V49.2729C50.9673 48.835 50.8303 48.4084 50.5766 48.0519C50.3229 47.6954 49.9651 47.4266 49.5526 47.2826ZM47.8012 45.8658C48.3521 45.6079 48.8557 45.6057 49.3404 45.8593C49.3612 45.8708 49.3786 45.8877 49.3906 45.9083C49.4027 45.9288 49.4089 45.9523 49.4087 45.9761V46.5054H47.7271V45.9856C47.7269 45.9607 47.7337 45.9362 47.7468 45.915C47.7599 45.8938 47.7788 45.8767 47.8012 45.8658ZM50.6992 51.3286L50.1206 51.5219L50.6992 51.9086V52.212L50.1206 52.4053L50.6992 52.7921V53.0955L50.1206 53.2888L50.6992 53.6755V58.4323C50.6988 58.7418 50.576 59.0385 50.3577 59.2573C50.1394 59.4762 49.8434 59.5993 49.5347 59.5996H47.4155C47.1059 59.5993 46.8091 59.4758 46.5902 59.2564C46.3713 59.0369 46.2482 58.7393 46.2478 58.429V53.6755L46.8264 53.2888L46.2478 53.0955V52.7921L46.8264 52.4053L46.2478 52.212V51.9086L46.8264 51.5219L46.2478 51.3286V49.3834C46.2461 48.9437 46.3938 48.5166 46.6666 48.1723C46.9394 47.8279 47.3209 47.587 47.7485 47.4891L47.853 47.4649V46.9651H49.2828V47.4831L49.3801 47.5114C49.7598 47.6235 50.0933 47.8555 50.331 48.1729C50.5687 48.4902 50.6978 48.876 50.6992 49.2729V51.3286Z" fill="white"/>
        <path d="M112.959 50.9861L112.28 50.85L112.44 50.5294L112.128 50.4669L112.182 50.1421L111.842 50.0852V49.7772L111.566 49.6982L111.828 49.3699H111.373L111.468 49.1322L111.132 49.0761L111.246 48.6753H110.883V48.3014H110.748C110.323 48.3014 110.086 48.8074 110.008 49.01C107.662 49.4202 100.85 54.1501 100.073 54.6941C99.7496 54.589 99.2705 54.8353 99.1705 54.8899L99.0122 54.9765L99.2406 55.2054L99.1725 55.4101L99.5917 55.5676L99.4999 55.7977L99.7638 56.0183L99.5267 56.1967L99.8836 56.4115L99.8209 56.7252L100.219 56.7824V57.0964L100.451 57.1429L100.336 57.5483H100.593V57.8689H100.843L100.957 58.2104L101.074 58.1869C101.345 58.1325 101.577 57.7562 101.668 57.5892C103.928 57.185 110.903 52.2651 111.582 51.7833C112.375 51.8785 112.666 51.6661 112.698 51.6412L112.827 51.5377L112.519 51.2805L112.959 50.9861ZM111.565 51.5084L111.513 51.5014L111.469 51.5322C111.392 51.5871 103.742 57.0204 101.561 57.3327L101.491 57.3427L101.46 57.4061C101.376 57.577 101.263 57.7317 101.126 57.8634L101.038 57.5985H100.862V57.2779H100.693L100.791 56.9353L100.489 56.8748V56.5479L100.142 56.4981L100.186 56.2775L100.009 56.1716L100.199 56.0294L99.8231 55.7158L99.9444 55.4115L99.5108 55.2484L99.5494 55.1325L99.4656 55.0484C99.6682 54.964 99.9132 54.9012 100.018 54.9643L100.094 55.0095L100.165 54.9591C100.242 54.9053 107.84 49.5777 110.126 49.2651L110.212 49.2535L110.237 49.1709C110.276 49.0431 110.416 48.7202 110.613 48.6096V48.9458H110.889L110.79 49.2931L111.093 49.3438L110.975 49.6404H111.267L111.102 49.8466L111.572 49.9812V50.3143L111.872 50.3644L111.819 50.6808L112.041 50.7251L111.881 51.0457L112.267 51.1233L112.068 51.2564L112.355 51.4956C112.095 51.5486 111.827 51.553 111.565 51.5084Z" fill="white"/>
        <path d="M77.7492 77.0436C79.9096 77.0436 81.661 75.2878 81.661 73.1221C81.661 70.9563 79.9096 69.2006 77.7492 69.2006C75.5888 69.2006 73.8374 70.9563 73.8374 73.1221C73.8374 75.2878 75.5888 77.0436 77.7492 77.0436Z" fill="#287EFF"/>
        <path d="M80.212 72.7348H78.1354V70.653H77.3627V72.7348H75.2861V73.5094H77.3627V75.5911H78.1354V73.5094H80.212V72.7348Z" fill="white"/>
        <path d="M90.0867 73.2573L88.0634 72.3107V72.8516H83.3423V73.663H88.0634V74.2039L90.0867 73.2573Z" fill="white"/>
        <path d="M65.4116 73.2573L67.435 72.3107V72.8516H72.1561V73.663H67.435V74.2039L65.4116 73.2573Z" fill="white"/>
        <path d="M127.186 104.359H28.3123V104.629H127.186V104.359Z" fill="#002660"/>
        <path d="M90.6985 21.6016H64.7998V21.872H90.6985V21.6016Z" fill="white"/>
        <path d="M90.761 95.4341H64.8623V95.7046H90.761V95.4341Z" fill="white"/>
        <path d="M148.133 35.6623C148.373 35.6623 148.568 35.402 148.568 35.0809C148.568 34.7597 148.373 34.4994 148.133 34.4994C147.893 34.4994 147.698 34.7597 147.698 35.0809C147.698 35.402 147.893 35.6623 148.133 35.6623Z" fill="#A0616A"/>
        <path d="M128.365 69.0121L127.691 71.5813C127.691 71.5813 125.263 76.9903 127.691 77.2608C130.119 77.5312 130.254 70.2291 130.254 70.2291L128.365 69.0121Z" fill="#A0616A"/>
        <path d="M132.547 50.4863L127.691 69.6882C127.691 69.6882 129.579 70.2291 130.524 70.9052L132.547 50.4863Z" fill="#D0CDE1"/>
        <path d="M147.789 65.0905L149.138 86.0503C149.138 86.0503 152.376 94.299 152.241 102.142C152.241 102.142 151.027 105.252 151.971 105.793C152.915 106.334 153.455 106.74 152.915 107.145C152.376 107.551 151.971 108.498 152.376 108.768C152.78 109.038 152.915 109.444 152.78 109.444H148.734C148.734 109.444 149.543 107.416 148.329 106.875C147.115 106.334 147.789 104.982 147.789 104.982L138.752 78.4778L131.603 102.818C131.603 102.818 132.817 103.63 131.872 104.035C130.928 104.441 130.523 103.63 130.928 104.441C131.333 105.252 130.793 105.658 130.793 105.793C130.793 105.928 126.747 105.387 126.747 105.387C126.747 105.387 128.77 103.63 127.826 103.224C126.881 102.818 126.477 102.412 126.747 102.142C127.016 101.872 128.095 99.3023 128.095 99.3023C128.095 99.3023 128.635 89.5662 128.77 89.1605C128.905 88.7548 128.77 86.8617 128.77 85.9151C128.77 84.9685 128.635 81.1823 129.04 80.2357C129.444 79.2891 129.849 67.6598 132.007 66.3076C134.166 64.9553 147.789 65.0905 147.789 65.0905Z" fill="#2F2E41"/>
        <path d="M130.658 105.117C130.658 105.117 133.356 110.661 131.468 111.337C129.579 112.013 127.151 111.473 126.612 112.284C126.072 113.095 120.137 114.042 120.002 112.013C119.867 109.985 126.477 106.199 126.477 106.199L127.338 104.809L130.658 105.117Z" fill="#2F2E41"/>
        <path d="M152.51 109.174C152.51 109.174 155.208 114.718 153.32 115.394C151.431 116.07 149.003 115.529 148.464 116.341C147.924 117.152 141.989 118.099 141.854 116.07C141.719 114.042 148.329 110.256 148.329 110.256L149.19 108.866L152.51 109.174Z" fill="#2F2E41"/>
        <path d="M140.033 39.6007C142.492 39.6007 144.485 37.6029 144.485 35.1383C144.485 32.6738 142.492 30.6759 140.033 30.6759C137.575 30.6759 135.582 32.6738 135.582 35.1383C135.582 37.6029 137.575 39.6007 140.033 39.6007Z" fill="#A0616A"/>
        <path d="M143.068 37.5048L142.529 41.4263L138.482 44.5364L137.403 43.049V37.9104L143.068 37.5048Z" fill="#A0616A"/>
        <path d="M136.728 42.5081C136.728 42.5081 140.91 42.9138 143.068 41.4263L147.385 66.9837C147.385 66.9837 132.142 68.2007 131.468 67.3894V59.4111L134.166 46.4296L136.728 42.5081Z" fill="#002660"/>
        <path d="M142.697 40.2044L144.147 41.4263C144.147 41.4263 150.082 42.3729 149.678 43.9956L148.059 63.1974L148.599 69.6882C148.599 69.6882 144.012 68.4712 140.505 69.6882C136.998 70.9052 139.784 43.5353 139.784 43.5353C139.784 43.5353 143 40.6052 142.697 40.2044Z" fill="#D0CDE1"/>
        <path d="M137.403 41.6845C137.403 41.6845 133.086 44.8069 132.547 46.8353C132.007 48.8637 130.253 70.2291 130.253 70.2291C130.253 70.2291 131.063 69.8234 131.467 70.4996C131.872 71.1757 138.077 42.7541 137.403 41.6845Z" fill="#D0CDE1"/>
        <path d="M149.273 69.9587L148.306 73.1218C148.306 73.1218 148.059 79.0187 144.822 78.2073C141.585 77.396 145.766 70.4996 145.766 70.4996L146.71 69.0121L149.273 69.9587Z" fill="#A0616A"/>
        <path d="M135.584 34.9439C135.584 34.9439 135.102 34.2193 135.288 33.4389C135.398 32.9959 135.442 32.5387 135.417 32.0826C135.417 32.0826 135.807 30.8191 136.196 30.1131C136.585 29.4071 136.4 29.1098 137.623 28.8868C138.846 28.6638 138.346 27.066 141.571 28.7939C141.679 28.9462 141.831 29.0628 142.006 29.1289C142.18 29.195 142.371 29.2078 142.553 29.1655C143.22 29.0355 143.461 29.9645 143.461 29.9645C143.461 29.9645 143.906 29.7043 144.073 30.0759C144.24 30.4475 145.429 29.8529 145.429 32.3612C145.429 34.8695 144.075 37.1101 144.075 37.1101C144.075 37.1101 144.175 32.8908 141.969 32.4635C139.764 32.0361 137.391 30.7913 136.817 32.3892C136.506 33.286 136.093 34.1434 135.584 34.9439Z" fill="#2F2E41"/>
        <path d="M148.599 43.049C148.599 43.049 150.757 42.5081 151.431 46.1592C152.106 49.8102 152.915 60.2225 152.915 60.2225L149.678 71.1757C149.678 71.1757 146.441 69.4178 145.766 69.6882L148.314 60.1791L146.171 50.4864C146.171 50.4864 148.059 43.049 148.599 43.049Z" fill="#D0CDE1"/>
        <path opacity="0.15" d="M149.47 50.3865L152.303 59.8522L149.47 69.4531L151.089 59.8522L149.47 50.3865Z" fill="black"/>
    </g>
    <path d="M25.6253 69.0121L26.2998 71.5813C26.2998 71.5813 28.7278 76.9903 26.2998 77.2608C23.8718 77.5312 23.7369 70.2291 23.7369 70.2291L25.6253 69.0121Z" fill="#A0616A"/>
    <path d="M21.4438 50.4863L26.2998 69.6882C26.2998 69.6882 24.4114 70.2291 23.4671 70.9052L21.4438 50.4863Z" fill="#D0CDE1"/>
    <path d="M6.20139 65.0905L4.8525 86.0503C4.8525 86.0503 1.61516 94.299 1.75004 102.142C1.75004 102.142 2.96405 105.252 2.01982 105.793C1.0756 106.334 0.536041 106.74 1.0756 107.145C1.61516 107.551 2.01982 108.498 1.61516 108.768C1.21049 109.038 1.0756 109.444 1.21049 109.444H5.25717C5.25717 109.444 4.44783 107.416 5.66183 106.875C6.87584 106.334 6.20139 104.982 6.20139 104.982L15.239 78.4778L22.3881 102.818C22.3881 102.818 21.1741 103.63 22.1183 104.035C23.0626 104.441 23.4672 103.63 23.0626 104.441C22.6579 105.252 23.1974 105.658 23.1974 105.793C23.1974 105.928 27.2441 105.387 27.2441 105.387C27.2441 105.387 25.2208 103.63 26.165 103.224C27.1092 102.818 27.5139 102.412 27.2441 102.142C26.9743 101.872 25.8952 99.3023 25.8952 99.3023C25.8952 99.3023 25.3557 89.5662 25.2208 89.1605C25.0859 88.7548 25.2208 86.8617 25.2208 85.9151C25.2208 84.9685 25.3557 81.1823 24.951 80.2357C24.5463 79.2891 24.1417 67.6598 21.9834 66.3076C19.8252 64.9553 6.20139 65.0905 6.20139 65.0905Z" fill="#2F2E41"/>
    <path d="M23.3324 105.117C23.3324 105.117 20.6346 110.661 22.5231 111.337C24.4115 112.013 26.8395 111.473 27.3791 112.284C27.9187 113.095 33.8538 114.042 33.9887 112.013C34.1236 109.985 27.514 106.199 27.514 106.199L26.653 104.809L23.3324 105.117Z" fill="#2F2E41"/>
    <path d="M1.48038 109.174C1.48038 109.174 -1.2174 114.718 0.671045 115.394C2.5595 116.07 4.9875 115.529 5.52706 116.341C6.06662 117.152 12.0017 118.099 12.1366 116.07C12.2715 114.042 5.66195 110.256 5.66195 110.256L4.80096 108.866L1.48038 109.174Z" fill="#2F2E41"/>
    <path d="M13.9573 39.6007C11.4989 39.6007 9.50599 37.6029 9.50599 35.1383C9.50599 32.6738 11.4989 30.6759 13.9573 30.6759C16.4158 30.6759 18.4087 32.6738 18.4087 35.1383C18.4087 37.6029 16.4158 39.6007 13.9573 39.6007Z" fill="#A0616A"/>
    <path d="M10.9225 37.5048L11.4621 41.4263L15.5088 44.5364L16.5879 43.049V37.9104L10.9225 37.5048Z" fill="#A0616A"/>
    <path d="M17.2623 42.5081C17.2623 42.5081 13.0807 42.9138 10.9225 41.4263L6.60602 66.9837C6.60602 66.9837 21.8485 68.2007 22.5229 67.3894V59.4111L19.8252 46.4296L17.2623 42.5081Z" fill="#002660"/>
    <path d="M11.2941 40.2044L9.84351 41.4263C9.84351 41.4263 3.90838 42.3729 4.31305 43.9956L5.93172 63.1974L5.39216 69.6882C5.39216 69.6882 9.9784 68.4712 13.4855 69.6882C16.9926 70.9052 14.2063 43.5353 14.2063 43.5353C14.2063 43.5353 10.991 40.6052 11.2941 40.2044Z" fill="#D0CDE1"/>
    <path d="M16.5882 41.6845C16.5882 41.6845 20.9046 44.8069 21.4442 46.8353C21.9837 48.8637 23.7373 70.2291 23.7373 70.2291C23.7373 70.2291 22.928 69.8234 22.5233 70.4996C22.1186 71.1757 15.9137 42.7541 16.5882 41.6845Z" fill="#D0CDE1"/>
    <path d="M4.71751 69.9587L5.68444 73.1218C5.68444 73.1218 5.93151 79.0187 9.16885 78.2073C12.4062 77.396 8.22463 70.4996 8.22463 70.4996L7.2804 69.0121L4.71751 69.9587Z" fill="#A0616A"/>
    <path d="M18.4066 34.9439C18.4066 34.9439 18.8885 34.2193 18.7032 33.4389C18.5924 32.9959 18.5487 32.5387 18.5734 32.0826C18.5734 32.0826 18.1842 30.8191 17.795 30.1131C17.4058 29.4071 17.5911 29.1098 16.3679 28.8868C15.1446 28.6638 15.6451 27.066 12.4201 28.7939C12.3113 28.9462 12.16 29.0628 11.9851 29.1289C11.8103 29.195 11.6199 29.2078 11.4378 29.1655C10.7706 29.0355 10.5296 29.9645 10.5296 29.9645C10.5296 29.9645 10.0848 29.7043 9.91802 30.0759C9.75121 30.4475 8.56185 29.8529 8.56185 32.3612C8.56185 34.8695 9.91531 37.1101 9.91531 37.1101C9.91531 37.1101 9.81608 32.8908 12.0216 32.4635C14.2272 32.0361 16.5995 30.7913 17.1741 32.3892C17.4843 33.286 17.8979 34.1434 18.4066 34.9439Z" fill="#2F2E41"/>
    <path d="M5.39193 43.049C5.39193 43.049 3.2337 42.5081 2.55925 46.1592C1.88481 49.8102 1.07547 60.2225 1.07547 60.2225L4.31282 71.1757C4.31282 71.1757 7.55016 69.4178 8.22461 69.6882L5.67706 60.1791L7.81994 50.4864C7.81994 50.4864 5.93149 43.049 5.39193 43.049Z" fill="#D0CDE1"/>
    <defs>
        <clipPath id="clip0">
            <rect width="139" height="117" fill="white" transform="translate(19)"/>
        </clipPath>
    </defs>
</svg>
