<svg width="313" height="364" viewBox="0 0 313 364" fill="none" xmlns="http://www.w3.org/2000/svg">
    <path d="M216.5 1.5C228.5 -0.500019 241.5 -0.333354 255.5 1.99999C268.167 3.99998 279.333 7.33331 289 12C297.667 16.3333 303.333 20.6667 306 25C313.333 36 314.833 50.1667 310.5 67.5C308.833 73.1667 306 78.1667 302 82.5C297.667 86.5 292.333 90.1666 286 93.5C278.667 97.5 271.333 99.5 264 99.5C260.333 99.5 257.667 98 256 95C255 93.3333 255.167 89.6666 256.5 84C260.167 71.6666 258.833 62 252.5 55C246.833 48.3333 232.833 43.5 210.5 40.5C207.5 40.1667 204.5 39.8333 201.5 39.5C186.5 38.8333 173.333 41.8333 162 48.5C152.667 54.1667 146.167 63.5 142.5 76.5C140.833 84.1667 140.833 91.6667 142.5 99C145.167 108.333 150.167 116.667 157.5 124C165.833 131.667 179.833 140.5 199.5 150.5C215.5 158.5 227.667 165.167 236 170.5C260 186.167 274.167 203.833 278.5 223.5C279.833 232.833 279.667 242 278 251C275.667 262.667 270.667 274.5 263 286.5C243 316.5 212.167 338.5 170.5 352.5C160.167 355.833 149.667 358.5 139 360.5C128.667 362.5 116.5 363.5 102.5 363.5C91.5 363.833 82 363.167 74 361.5C47.6667 355.833 26.6667 342.833 11 322.5C5.352e-07 307.167 -2 289.333 5 269C10.6667 251.333 20.8333 237.5 35.5 227.5C47.5 219.5 60 215 73 214C77 214 79.6667 214.333 81 215C85.6667 217.667 86.5 222 83.5 228C80.1667 235.333 73.1667 241.667 62.5 247L59.5 248.5L58 253.5C55.6667 260.833 55 267.167 56 272.5C56.3333 277.833 58 283 61 288C69 299.667 79.1667 308.5 91.5 314.5C112.5 324.167 135.333 327 160 323C195 316.667 216 300 223 273C228 254 222.833 236.667 207.5 221C196.833 210.667 179.833 199.833 156.5 188.5C142.167 181.167 134.833 177.5 134.5 177.5C101.5 158.167 85.5 135.333 86.5 109C86.8333 99 89.6667 88.5 95 77.5C107 53.5 128.333 33.8333 159 18.5C178.333 9.16665 197.5 3.49999 216.5 1.5Z" fill="#F2F8FE" fill-opacity="0.6"/>
</svg>
