<svg width="957" height="1011" viewBox="0 0 957 1011" fill="none" xmlns="http://www.w3.org/2000/svg">
<path d="M956.9 0.0999985C956.9 327.4 956.9 654.6 956.9 981.9C951.1 979.5 945.3 977.2 939.6 974.6C829.3 925.5 723.8 958.3 614.3 989.2C558.9 1004.8 504.3 1019.4 446.9 1005C370.7 985.9 315.7 940.7 280.8 870.3C270.4 849.3 259.2 828.4 246.4 808.8C214.9 760.8 173.1 723.4 125.1 691.9C58.3998 648.4 18.7998 586.3 4.89984 508C-7.00016 441.3 8.59983 366.6 46.9998 310.7C79.4998 263.4 128.2 228.1 183.2 212C207.7 204.9 233.2 201.5 258.7 202.2C279.9 202.7 301 205.8 322 208.2C363.5 212.8 405 217.7 446.5 222.5C503.3 229 560.4 236.7 617.7 234.7C756.9 229.8 880.4 148.9 943.1 25.4C947.5 16.8 952.3 8.5 956.9 0.0999985Z" fill="#F2F7FF" fill-opacity="0.7"/>
</svg>
