<svg width="139" height="117" viewBox="0 0 139 117" fill="none" xmlns="http://www.w3.org/2000/svg">
    <path d="M37.022 71.1281C36.6478 71.1281 36.2697 71.1221 35.8987 71.1105L35.9071 70.8403C36.4399 70.857 36.9837 70.8616 37.519 70.8542L37.5227 71.1246C37.3561 71.1269 37.1892 71.128 37.022 71.1281ZM39.1459 71.0653L39.1301 70.7954C39.6637 70.7639 40.2042 70.7195 40.7365 70.6636L40.7647 70.9325C40.2283 70.9889 39.6837 71.0337 39.1459 71.0653ZM34.2769 71.0232C33.7388 70.9819 33.1951 70.9277 32.6606 70.862L32.6936 70.5936C33.2239 70.6588 33.7635 70.7126 34.2975 70.7536L34.2769 71.0232ZM42.3756 70.7258L42.3351 70.4586C42.8653 70.3779 43.3996 70.2842 43.9227 70.18L43.9753 70.4452C43.4481 70.5502 42.9099 70.6446 42.3756 70.7258ZM31.0536 70.6269C30.522 70.5366 29.9855 70.4328 29.4588 70.3182L29.516 70.0538C30.0387 70.1676 30.5711 70.2706 31.0987 70.3602L31.0536 70.6269ZM45.5608 70.0912L45.4959 69.8287C46.0164 69.6996 46.5398 69.557 47.0515 69.4049L47.1282 69.6642C46.6125 69.8176 46.0852 69.9612 45.5608 70.0912ZM27.88 69.9361C27.3585 69.7971 26.8338 69.6442 26.3203 69.4813L26.4016 69.2236C26.9112 69.3851 27.4319 69.5368 27.9493 69.6747L27.88 69.9361ZM48.6743 69.1652L48.5858 68.9098C49.0908 68.7338 49.5987 68.5435 50.0957 68.3441L50.1959 68.5953C49.6952 68.7961 49.1833 68.9879 48.6743 69.1652ZM24.7792 68.9534C24.2728 68.7668 23.7632 68.5654 23.2648 68.3549L23.3695 68.1056C23.8641 68.3145 24.3698 68.5143 24.8724 68.6996L24.7792 68.9534ZM51.6862 67.957L51.5745 67.7109C52.0595 67.49 52.5471 67.2541 53.0235 67.0099L53.1463 67.2508C52.6662 67.4968 52.1749 67.7344 51.6862 67.957ZM54.5726 66.4779L54.4391 66.2431C54.9042 65.977 55.3685 65.6973 55.8189 65.4117L55.963 65.6401C55.5092 65.928 55.0415 66.2099 54.5727 66.4779H54.5726ZM57.314 64.7393L57.1597 64.5177C57.5976 64.2109 58.0347 63.8896 58.4588 63.5629L58.6231 63.7774C58.196 64.1066 57.7555 64.4302 57.314 64.7393ZM16.1963 64.3584C15.7609 64.0413 15.3259 63.7092 14.9034 63.371L15.0717 63.1597C15.491 63.4953 15.9227 63.8249 16.3548 64.1395L16.1963 64.3584ZM59.8873 62.7566L59.7135 62.5498C60.1217 62.2044 60.5279 61.8446 60.9211 61.4801L61.1042 61.6787C60.7081 62.046 60.2987 62.4086 59.8873 62.7566ZM13.657 62.3258C13.2515 61.9698 12.8486 61.5995 12.4596 61.2251L12.6464 61.03C13.0325 61.4015 13.4323 61.7691 13.8347 62.1224L13.657 62.3258ZM62.2712 60.5461L62.0792 60.3562C62.4555 59.9739 62.8278 59.5783 63.1854 59.1804L63.3859 59.3613C63.0255 59.7624 62.6505 60.1609 62.2712 60.5461ZM11.3137 60.0712C10.9416 59.679 10.5742 59.2736 10.2215 58.8664L10.4253 58.6892C10.7752 59.0934 11.1399 59.4956 11.5092 59.8848L11.3137 60.0712ZM64.4456 58.1267L64.2373 57.9551C64.5772 57.5403 64.912 57.1123 65.2325 56.6827L65.4485 56.8446C65.1256 57.2775 64.7883 57.7089 64.4457 58.1267H64.4456ZM9.18542 57.6133C8.8513 57.1901 8.52231 56.7531 8.20754 56.3145L8.42647 56.1566C8.73886 56.5917 9.06535 57.0254 9.39697 57.4456L9.18542 57.6133ZM66.3919 55.5177L66.1688 55.3659C66.4697 54.9217 66.7643 54.4647 67.0445 54.0071L67.2745 54.1487C66.992 54.6097 66.695 55.0703 66.3919 55.5177ZM7.29007 54.9728C6.99612 54.5211 6.70843 54.0563 6.43489 53.5909L6.66726 53.4536C6.93875 53.9153 7.22427 54.3768 7.51598 54.8249L7.29007 54.9728ZM68.0936 52.7402L67.8575 52.6095C68.1165 52.1396 68.3681 51.6571 68.6056 51.1752L68.8475 51.2951C68.6083 51.7805 68.3545 52.2668 68.0936 52.7402ZM69.5343 49.8165L69.2872 49.7079C69.5022 49.2158 69.7086 48.7117 69.9008 48.2099L70.1526 48.3068C69.959 48.8126 69.7509 49.3205 69.5343 49.8165ZM4.26105 49.2329C4.05424 48.7354 3.85618 48.2263 3.67242 47.7197L3.926 47.6273C4.10831 48.13 4.30485 48.6351 4.51002 49.1289L4.26105 49.2329ZM70.7009 46.7697L70.4448 46.6847C70.6132 46.1761 70.772 45.6564 70.9169 45.1396L71.1767 45.2128C71.0306 45.7335 70.8704 46.2573 70.7009 46.7697ZM3.15276 46.177C2.99225 45.6616 2.84142 45.1351 2.70449 44.6119L2.96544 44.5433C3.10132 45.0625 3.25103 45.585 3.41028 46.0965L3.15276 46.177ZM71.5802 43.6355L71.3174 43.5742C71.4382 43.053 71.5486 42.5207 71.6456 41.9924L71.9109 42.0412C71.8132 42.5738 71.7019 43.1101 71.5802 43.6355ZM2.32881 43.0278C2.21631 42.4996 2.11448 41.9614 2.02623 41.4281L2.29232 41.3837C2.37998 41.9131 2.48102 42.4471 2.59266 42.9713L2.32881 43.0278ZM72.1681 40.4337L71.9007 40.397C71.9732 39.8673 72.0345 39.3272 72.0828 38.7916L72.3516 38.8159C72.3028 39.3557 72.241 39.8999 72.1681 40.4337ZM1.79715 39.8162C1.73353 39.2809 1.6813 38.7356 1.64184 38.1956L1.91096 38.1758C1.95002 38.7118 2.00192 39.2529 2.06509 39.7843L1.79715 39.8162ZM72.4614 37.1916L72.1919 37.1795C72.2159 36.6436 72.2281 36.1001 72.2281 35.564H72.4979C72.4979 36.1042 72.4857 36.6518 72.4614 37.1916ZM1.56011 36.5694C1.55089 36.2378 1.54621 35.8995 1.54614 35.564C1.54614 35.3559 1.54792 35.1482 1.55148 34.9409L1.82126 34.9456C1.8177 35.1514 1.81592 35.3575 1.81592 35.564C1.81599 35.897 1.82066 36.2328 1.82975 36.562L1.56011 36.5694ZM1.88528 33.3311L1.61603 33.3142C1.64968 32.7738 1.69618 32.228 1.75407 31.6919L2.02227 31.721C1.96477 32.2531 1.91873 32.7947 1.88527 33.3311H1.88528ZM72.0539 31.6811C72.0001 31.1479 71.926 30.888 71.8477 30.3571L72.1146 30.3176C72.1934 30.8525 72.2609 31.2608 72.3153 31.798L72.0539 31.6811ZM2.23231 30.1191L1.96569 30.0778C2.04835 29.5427 2.14438 29.0035 2.25115 28.4748L2.51553 28.5284C2.40962 29.0531 2.31431 29.5882 2.23231 30.1191ZM71.5754 28.7647C71.4725 28.2372 71.3565 27.7061 71.2303 27.1863L71.4924 27.1224C71.6196 27.6462 71.7365 28.1813 71.8402 28.7128L71.5754 28.7647ZM2.87132 26.9525L2.60964 26.8868C2.74065 26.363 2.88574 25.8348 3.04092 25.3169L3.29923 25.3947C3.14532 25.9086 3.00134 26.4328 2.87132 26.9525ZM70.813 25.6255C70.6626 25.1106 70.4982 24.5926 70.3244 24.0858L70.5794 23.9978C70.7546 24.5085 70.9203 25.0306 71.072 25.5494L70.813 25.6255ZM3.8 23.8541L3.5455 23.7644C3.72479 23.2531 3.91836 22.7395 4.12082 22.2376L4.37098 22.339C4.17003 22.837 3.9779 23.3468 3.8 23.8541ZM69.7654 22.5702C69.5686 22.0724 69.3578 21.5729 69.1389 21.0855L69.3849 20.9744C69.6056 21.4656 69.8179 21.969 70.0162 22.4705L69.7654 22.5702ZM5.01084 20.8524L4.7657 20.7395C4.99102 20.2476 5.23083 19.7543 5.47848 19.2734L5.71822 19.3974C5.47242 19.8747 5.23445 20.3642 5.01084 20.8524ZM68.445 19.6306C68.2036 19.1532 67.9478 18.6747 67.6847 18.2088L67.9194 18.0755C68.1846 18.5451 68.4423 19.0272 68.6856 19.5083L68.445 19.6306ZM6.49153 17.9769L6.25771 17.8419C6.52683 17.3735 6.81064 16.9045 7.1013 16.4483L7.32866 16.5938C7.04024 17.0466 6.75854 17.512 6.49153 17.9769ZM66.8601 16.8227C66.575 16.3678 66.2765 15.9146 65.9729 15.4756L66.1945 15.3215C66.5005 15.7638 66.8013 16.2205 67.0885 16.6789L66.8601 16.8227ZM8.22797 15.2509L8.00745 15.0951C8.31846 14.6529 8.64363 14.2122 8.97414 13.7851L9.18727 13.9509C8.85934 14.3748 8.53654 14.8121 8.22797 15.2509ZM65.025 14.1702C64.6999 13.7433 64.3614 13.319 64.0185 12.9089L64.2253 12.7352C64.5707 13.1484 64.9118 13.5759 65.2394 14.0061L65.025 14.1702ZM10.2045 12.6964L9.99918 12.521C10.3482 12.1101 10.712 11.701 11.0803 11.3053L11.2775 11.4897C10.912 11.8825 10.551 12.2885 10.2045 12.6964ZM62.9557 11.6946C62.5933 11.2992 62.2174 10.9073 61.8385 10.5298L62.0287 10.338C62.4105 10.7183 62.7892 11.1132 63.1543 11.5116L62.9557 11.6946ZM12.4039 10.3337L12.2152 10.1404C12.601 9.76209 13.0002 9.38804 13.4016 9.02873L13.5813 9.23051C13.1829 9.58706 12.7867 9.95826 12.4039 10.3337ZM60.6697 9.41697C60.2725 9.05586 59.8624 8.69971 59.4509 8.35841L59.623 8.15003C60.0375 8.49391 60.4507 8.85276 60.8509 9.21664L60.6697 9.41697ZM14.8074 8.18212L14.6371 7.97242C15.0543 7.63179 15.4855 7.29583 15.9188 6.97388L16.0795 7.19111C15.6494 7.51069 15.2215 7.84406 14.8074 8.18212ZM17.3948 6.2596L17.2443 6.03523C17.6908 5.73402 18.1506 5.43907 18.6108 5.15839L18.7509 5.38949C18.2943 5.66799 17.838 5.96076 17.3948 6.2596ZM20.1449 4.58263L20.0154 4.34533C20.4879 4.08617 20.9723 3.83473 21.4552 3.59789L21.5738 3.84088C21.0946 4.07587 20.6138 4.32539 20.1449 4.58263ZM52.7032 3.95603C52.2232 3.71628 51.7314 3.48466 51.2416 3.26762L51.3507 3.02029C51.8443 3.23897 52.3399 3.47238 52.8236 3.71397L52.7032 3.95603ZM23.0345 3.16574L22.9273 2.91761C23.421 2.70308 23.926 2.49734 24.4283 2.30606L24.5241 2.55894C24.0256 2.74871 23.5245 2.95287 23.0345 3.16574ZM49.7496 2.64723C49.2501 2.45304 48.7388 2.26776 48.23 2.09662L48.3158 1.84017C48.8285 2.0127 49.3437 2.19936 49.8471 2.39513L49.7496 2.64723ZM26.0437 2.02023L25.9597 1.76325C26.4723 1.59475 26.9954 1.43609 27.5143 1.29182L27.5864 1.55236C27.0715 1.69557 26.5524 1.85298 26.0437 2.02023ZM46.6903 1.61812C46.1758 1.47108 45.651 1.33414 45.1305 1.21113L45.1924 0.947946C45.717 1.07188 46.2457 1.20987 46.7644 1.35798L46.6903 1.61812ZM29.1491 1.15626L29.089 0.892615C29.6146 0.772246 30.1501 0.662575 30.6803 0.566702L30.7283 0.832794C30.202 0.928005 29.6707 1.03682 29.1491 1.15626ZM43.5536 0.876767C43.0283 0.777925 42.4932 0.689974 41.9631 0.615364L42.0006 0.347557C42.5347 0.422762 43.074 0.511371 43.6034 0.610941L43.5536 0.876767ZM32.3207 0.582485L32.285 0.314414C32.819 0.242972 33.3621 0.182886 33.8992 0.136008L33.9226 0.4054C33.3896 0.452013 32.8507 0.51157 32.3207 0.582485ZM40.3623 0.427321C39.8309 0.37714 39.29 0.338449 38.7545 0.312499L38.7677 0.0423199C39.3071 0.0685332 39.8521 0.107491 40.3875 0.158073L40.3623 0.427321ZM35.5313 0.30167L35.5199 0.0314912C36.0158 0.0107586 36.5211 0.000193556 37.022 6.10352e-05L37.1441 0.000259892L37.1433 0.270709L37.022 0.27051C36.5249 0.270635 36.0233 0.281134 35.5313 0.301667V0.30167Z" fill="#002660"/>
    <path d="M80.4265 12.739V100.391C80.4255 101.436 80.0111 102.437 79.2743 103.175C78.5376 103.913 77.5388 104.327 76.4972 104.328H41.0011C40.4851 104.329 39.9739 104.228 39.497 104.03C39.02 103.833 38.5866 103.543 38.2216 103.177C37.8566 102.811 37.5671 102.377 37.3698 101.899C37.1725 101.421 37.0712 100.909 37.0718 100.391V12.739C37.0717 12.2217 37.1733 11.7094 37.3708 11.2315C37.5682 10.7535 37.8577 10.3193 38.2226 9.9535C38.5874 9.58771 39.0206 9.29756 39.4974 9.09962C39.9741 8.90168 40.4851 8.79982 41.0011 8.79987H46.313V9.48275C46.3129 10.3429 46.6537 11.1679 47.2602 11.7763C47.8668 12.3846 48.6897 12.7265 49.5477 12.7268H67.6013C68.2919 12.7283 68.9646 12.5063 69.5194 12.0939C69.6315 12.0122 69.7379 11.9227 69.8377 11.8262C70.1537 11.5237 70.4052 11.16 70.5767 10.7572C70.7483 10.3543 70.8365 9.92077 70.8359 9.48275V8.79987H76.4972C77.0133 8.79971 77.5243 8.90149 78.0011 9.09939C78.4779 9.29729 78.9111 9.58743 79.276 9.95324C79.6409 10.3191 79.9303 10.7534 80.1278 11.2313C80.3252 11.7093 80.4267 12.2216 80.4265 12.739Z" fill="#002660"/>
    <path d="M75.2371 40.3978H42.2615V65.5495H75.2371V40.3978Z" fill="#287EFF"/>
    <path d="M24.8967 36.1599C27.8327 36.2231 30.1682 38.356 30.1682 38.356C30.1682 38.356 27.7436 40.3865 24.8076 40.3234C21.8717 40.2603 19.5361 38.1274 19.5361 38.1274C19.5361 38.1274 21.9608 36.0968 24.8967 36.1599Z" fill="#287EFF"/>
    <path d="M10.1361 26.113C12.7887 27.3763 15.8303 26.5197 15.8303 26.5197C15.8303 26.5197 14.5713 23.6148 11.9187 22.3515C9.26621 21.0882 6.22461 21.9449 6.22461 21.9449C6.22461 21.9449 7.4836 24.8497 10.1361 26.113Z" fill="#287EFF"/>
    <path d="M10.4057 24.8577C13.3302 24.5897 15.89 26.4461 15.89 26.4461C15.89 26.4461 13.7083 28.7369 10.7838 29.0048C7.85934 29.2727 5.29956 27.4164 5.29956 27.4164C5.29956 27.4164 7.48127 25.1256 10.4057 24.8577Z" fill="#002660"/>
    <path d="M21.126 25.3652C20.8457 28.2957 22.686 30.8701 22.686 30.8701C22.686 30.8701 24.9808 28.6932 25.2611 25.7627C25.5414 22.8322 23.7011 20.2578 23.7011 20.2578C23.7011 20.2578 21.4063 22.4347 21.126 25.3652Z" fill="#002660"/>
    <path d="M34.8988 43.3379C33.3649 45.8483 33.8926 48.9711 33.8926 48.9711C33.8926 48.9711 36.9073 48.0235 38.4412 45.5131C39.9751 43.0027 39.4473 39.88 39.4473 39.88C39.4473 39.88 36.4327 40.8275 34.8988 43.3379Z" fill="#002660"/>
    <path d="M30.4487 70.6328L30.6722 70.4813C29.8843 69.335 29.4541 67.9798 29.4362 66.5878C29.4425 64.5517 30.4401 62.6684 31.4049 60.8471C31.584 60.509 31.7625 60.172 31.9342 59.8353C32.655 58.4621 33.2294 57.0165 33.6479 55.5226C35.1444 49.9473 33.671 43.3695 29.7065 37.9269C26.5615 33.6094 21.8733 29.8339 15.374 26.3848L15.2478 26.6238C21.71 30.0533 26.3683 33.8028 29.4886 38.0865C33.4054 43.4635 34.8629 49.9554 33.3873 55.4524C32.9737 56.928 32.4061 58.3558 31.6941 59.7122C31.5229 60.0477 31.3451 60.3834 31.1667 60.7202C30.1865 62.5706 29.1729 64.4839 29.1664 66.5871C29.1843 68.0332 29.6306 69.4415 30.4487 70.6328Z" fill="#002660"/>
    <path d="M2.5629 26.7402C3.97835 26.7402 5.12579 25.5899 5.12579 24.1709C5.12579 22.7519 3.97835 21.6016 2.5629 21.6016C1.14745 21.6016 0 22.7519 0 24.1709C0 25.5899 1.14745 26.7402 2.5629 26.7402Z" fill="#002660"/>
    <path d="M38.6408 65.8761L22.5527 64.5321V40.8775L38.6408 40.0712V65.8761Z" fill="#287EFF"/>
    <path d="M78.8577 65.8761L94.9458 64.5321V40.8775L78.8577 40.0712V65.8761Z" fill="#287EFF"/>
    <path d="M64.3414 49.8383C63.8628 49.4238 63.2728 49.16 62.6454 49.0801C62.0179 49.0001 61.3809 49.1075 60.8141 49.3887C60.3218 49.6275 59.7921 49.7794 59.2484 49.8378C59.2348 48.6571 59.451 47.4851 59.8848 46.3874L59.956 46.2033H59.0104L58.9833 46.3028C58.8779 46.691 58.7949 47.0849 58.7347 47.4826C58.6836 47.3102 58.6174 47.1427 58.5369 46.982C57.8736 45.6637 56.3412 45.1245 56.2762 45.1023L56.1456 45.0574L56.1039 45.1894C56.0832 45.255 55.6047 46.8108 56.2679 48.1291C56.7427 49.073 57.663 49.6173 58.1714 49.8586C57.5279 49.8171 56.8991 49.6484 56.3209 49.3624C55.9604 49.1762 55.5549 49.0955 55.1508 49.1297C54.7467 49.1639 54.3604 49.3116 54.0361 49.5557C52.2706 50.9006 51.2581 52.8721 51.2581 54.9646C51.2581 57.7135 53.0338 60.2309 55.7821 61.3779C56.03 61.481 56.2958 61.5339 56.5642 61.5336C56.9369 61.5337 57.3027 61.4331 57.6232 61.2424C58.0492 60.994 58.5331 60.8627 59.0259 60.8617C59.5187 60.8607 60.0031 60.9901 60.4301 61.2367C60.7062 61.4 61.0163 61.4967 61.3361 61.5193C61.6559 61.5419 61.9765 61.4897 62.2727 61.3668C65.0049 60.2153 66.7703 57.7023 66.7703 54.9646C66.7703 53.0051 65.9076 51.1846 64.3414 49.8383ZM59.2169 46.4738H59.564C59.1735 47.5222 58.9745 48.6326 58.9764 49.7518H58.9145C58.8309 48.6498 58.9331 47.5416 59.2169 46.4738ZM56.5088 48.0074C56.0053 47.0066 56.2261 45.8137 56.3237 45.4112C56.7045 45.5714 57.7915 46.1011 58.2959 47.1037C58.7993 48.1044 58.5786 49.297 58.481 49.6997C58.1 49.539 57.0121 49.008 56.5088 48.0074ZM62.1681 61.1175C61.9106 61.2242 61.632 61.2695 61.3541 61.2497C61.0762 61.2299 60.8067 61.1456 60.5669 61.0035C60.0982 60.7323 59.5664 60.5901 59.0253 60.5912C58.4842 60.5924 57.9529 60.7368 57.4854 61.01C57.2462 61.1527 56.9771 61.2376 56.6995 61.2582C56.4219 61.2787 56.1433 61.2343 55.8857 61.1283C53.2384 60.0234 51.5278 57.604 51.5278 54.9646C51.5278 52.9574 52.5016 51.0644 54.1993 49.7711C54.525 49.5245 54.9223 49.3915 55.3305 49.3925C55.632 49.3923 55.9291 49.4644 56.1972 49.6027C56.9361 49.9562 57.7437 50.142 58.5625 50.1469C59.3812 50.1518 60.191 49.9756 60.9341 49.6309C61.4535 49.3733 62.0371 49.2751 62.612 49.3485C63.1868 49.4219 63.7273 49.6637 64.1657 50.0436C65.6713 51.3377 66.5005 53.0853 66.5005 54.9646C66.5005 57.5932 64.7999 60.0082 62.1681 61.1175Z" fill="white"/>
    <path d="M30.5526 47.2826V46.9651H30.6785V45.9761C30.679 45.9028 30.6593 45.8307 30.6217 45.7678C30.5841 45.705 30.53 45.6536 30.4653 45.6195C29.9085 45.3283 29.3102 45.3286 28.6869 45.6209C28.6181 45.6536 28.56 45.7053 28.5194 45.7699C28.4787 45.8344 28.4572 45.9093 28.4573 45.9856V46.9651H28.5832V47.2525C28.1199 47.3827 27.712 47.6616 27.4221 48.0465C27.1321 48.4314 26.9761 48.9011 26.978 49.3834V51.5235L27.2178 51.6036L26.978 51.7638V52.4069L27.2178 52.4871L26.978 52.6473V53.2904L27.2178 53.3705L26.978 53.5308V58.429C26.9785 58.811 27.1301 59.1773 27.3995 59.4475C27.669 59.7177 28.0344 59.8696 28.4155 59.8701H30.5347C30.915 59.8697 31.2795 59.718 31.5484 59.4485C31.8173 59.1789 31.9685 58.8135 31.9689 58.4323V53.5308L31.7292 53.3705L31.9689 53.2904V52.6473L31.7292 52.4871L31.9689 52.4069V51.7638L31.7292 51.6036L31.9689 51.5235V49.2729C31.9673 48.835 31.8303 48.4084 31.5766 48.0519C31.3229 47.6954 30.9651 47.4266 30.5526 47.2826ZM28.8012 45.8658C29.3521 45.6079 29.8557 45.6057 30.3404 45.8593C30.3612 45.8708 30.3786 45.8877 30.3906 45.9083C30.4027 45.9288 30.4089 45.9523 30.4087 45.9761V46.5054H28.7271V45.9856C28.7269 45.9607 28.7337 45.9362 28.7468 45.915C28.7599 45.8938 28.7788 45.8767 28.8012 45.8658ZM31.6992 51.3286L31.1206 51.5219L31.6992 51.9086V52.212L31.1206 52.4053L31.6992 52.7921V53.0955L31.1206 53.2888L31.6992 53.6755V58.4323C31.6988 58.7418 31.576 59.0385 31.3577 59.2573C31.1394 59.4762 30.8434 59.5993 30.5347 59.5996H28.4155C28.1059 59.5993 27.8091 59.4758 27.5902 59.2564C27.3713 59.0369 27.2482 58.7393 27.2478 58.429V53.6755L27.8264 53.2888L27.2478 53.0955V52.7921L27.8264 52.4053L27.2478 52.212V51.9086L27.8264 51.5219L27.2478 51.3286V49.3834C27.2461 48.9437 27.3938 48.5166 27.6666 48.1723C27.9394 47.8279 28.3209 47.587 28.7485 47.4891L28.853 47.4649V46.9651H30.2828V47.4831L30.3801 47.5114C30.7598 47.6235 31.0933 47.8555 31.331 48.1729C31.5687 48.4902 31.6978 48.876 31.6992 49.2729V51.3286Z" fill="white"/>
    <path d="M93.959 50.9861L93.2798 50.85L93.4398 50.5294L93.1282 50.4669L93.1821 50.1421L92.842 50.0852V49.7772L92.566 49.6982L92.828 49.3699H92.3734L92.4684 49.1322L92.1322 49.0761L92.2463 48.6753H91.8826V48.3014H91.7477C91.3228 48.3014 91.0858 48.8074 91.0079 49.01C88.6619 49.4202 81.8501 54.1501 81.0726 54.6941C80.7496 54.589 80.2705 54.8353 80.1705 54.8899L80.0122 54.9765L80.2406 55.2054L80.1725 55.4101L80.5917 55.5676L80.4999 55.7977L80.7638 56.0183L80.5267 56.1967L80.8836 56.4115L80.8209 56.7252L81.2195 56.7824V57.0964L81.4509 57.1429L81.3355 57.5483H81.5925V57.8689H81.8433L81.957 58.2104L82.0737 58.1869C82.3451 58.1325 82.5775 57.7562 82.6684 57.5892C84.9278 57.185 91.9034 52.2651 92.5825 51.7833C93.3751 51.8785 93.6663 51.6661 93.6975 51.6412L93.8265 51.5377L93.5185 51.2805L93.959 50.9861ZM92.5651 51.5084L92.5125 51.5014L92.4692 51.5322C92.3921 51.5871 84.742 57.0204 82.5611 57.3327L82.4912 57.3427L82.4596 57.4061C82.376 57.577 82.263 57.7317 82.1259 57.8634L82.0378 57.5985H81.8623V57.2779H81.6931L81.7908 56.9353L81.4893 56.8748V56.5479L81.1415 56.4981L81.1855 56.2775L81.0094 56.1716L81.1985 56.0294L80.8231 55.7158L80.9444 55.4115L80.5108 55.2484L80.5494 55.1325L80.4656 55.0484C80.6682 54.964 80.9132 54.9012 81.0185 54.9643L81.0937 55.0095L81.1654 54.9591C81.2419 54.9053 88.8401 49.5777 91.1264 49.2651L91.2117 49.2535L91.2371 49.1709C91.2764 49.0431 91.416 48.7202 91.6128 48.6096V48.9458H91.8888L91.7897 49.2931L92.0932 49.3438L91.9748 49.6404H92.2666L92.1021 49.8466L92.5722 49.9812V50.3143L92.8717 50.3644L92.8192 50.6808L93.0406 50.7251L92.8807 51.0457L93.2675 51.1233L93.0683 51.2564L93.3547 51.4956C93.0945 51.5486 92.8268 51.553 92.5651 51.5084Z" fill="white"/>
    <path d="M58.7492 77.0436C60.9096 77.0436 62.661 75.2878 62.661 73.1221C62.661 70.9563 60.9096 69.2006 58.7492 69.2006C56.5888 69.2006 54.8374 70.9563 54.8374 73.1221C54.8374 75.2878 56.5888 77.0436 58.7492 77.0436Z" fill="#287EFF"/>
    <path d="M61.212 72.7348H59.1354V70.653H58.3627V72.7348H56.2861V73.5094H58.3627V75.5911H59.1354V73.5094H61.212V72.7348Z" fill="white"/>
    <path d="M71.0867 73.2573L69.0634 72.3107V72.8516H64.3423V73.663H69.0634V74.2039L71.0867 73.2573Z" fill="white"/>
    <path d="M46.4116 73.2573L48.435 72.3107V72.8516H53.1561V73.663H48.435V74.2039L46.4116 73.2573Z" fill="white"/>
    <path d="M108.186 104.359H9.31226V104.629H108.186V104.359Z" fill="#002660"/>
    <path d="M71.6985 21.6016H45.7998V21.872H71.6985V21.6016Z" fill="white"/>
    <path d="M71.761 95.4341H45.8623V95.7046H71.761V95.4341Z" fill="white"/>
    <path d="M113.375 68.7273L112.7 71.2966C112.7 71.2966 110.272 76.7055 112.7 76.976C115.128 77.2464 115.263 69.9443 115.263 69.9443L113.375 68.7273Z" fill="#A0616A"/>
    <path d="M117.556 50.2015L112.7 69.4034C112.7 69.4034 114.588 69.9443 115.533 70.6204L117.556 50.2015Z" fill="#D0CDE1"/>
    <path d="M132.799 64.8058L134.148 85.7655C134.148 85.7655 137.385 94.0142 137.25 101.857C137.25 101.857 136.036 104.967 136.98 105.508C137.924 106.049 138.464 106.455 137.924 106.861C137.385 107.266 136.98 108.213 137.385 108.483C137.79 108.754 137.924 109.159 137.79 109.159H133.743C133.743 109.159 134.552 107.131 133.338 106.59C132.124 106.049 132.799 104.697 132.799 104.697L123.761 78.193L116.612 102.533C116.612 102.533 117.826 103.345 116.882 103.75C115.937 104.156 115.533 103.345 115.937 104.156C116.342 104.967 115.803 105.373 115.803 105.508C115.803 105.644 111.756 105.103 111.756 105.103C111.756 105.103 113.779 103.345 112.835 102.939C111.891 102.533 111.486 102.128 111.756 101.857C112.026 101.587 113.105 99.0175 113.105 99.0175C113.105 99.0175 113.644 89.2814 113.779 88.8757C113.914 88.47 113.779 86.5769 113.779 85.6303C113.779 84.6838 113.644 80.8975 114.049 79.9509C114.454 79.0043 114.858 67.375 117.017 66.0228C119.175 64.6705 132.799 64.8058 132.799 64.8058Z" fill="#2F2E41"/>
    <path d="M115.668 104.832C115.668 104.832 118.365 110.376 116.477 111.053C114.588 111.729 112.16 111.188 111.621 111.999C111.081 112.81 105.146 113.757 105.011 111.729C104.876 109.7 111.486 105.914 111.486 105.914L112.347 104.524L115.668 104.832Z" fill="#2F2E41"/>
    <path d="M137.52 108.889C137.52 108.889 140.217 114.433 138.329 115.109C136.441 115.785 134.012 115.245 133.473 116.056C132.933 116.867 126.998 117.814 126.863 115.785C126.728 113.757 133.338 109.971 133.338 109.971L134.199 108.581L137.52 108.889Z" fill="#2F2E41"/>
    <path d="M125.042 39.316C127.501 39.316 129.494 37.3181 129.494 34.8535C129.494 32.389 127.501 30.3911 125.042 30.3911C122.584 30.3911 120.591 32.389 120.591 34.8535C120.591 37.3181 122.584 39.316 125.042 39.316Z" fill="#A0616A"/>
    <path d="M128.077 37.22L127.538 41.1415L123.491 44.2516L122.412 42.7642V37.6256L128.077 37.22Z" fill="#A0616A"/>
    <path d="M121.738 42.2233C121.738 42.2233 125.919 42.629 128.078 41.1415L132.394 66.6989C132.394 66.6989 117.151 67.9159 116.477 67.1046V59.1264L119.175 46.1448L121.738 42.2233Z" fill="#002660"/>
    <path d="M127.706 39.9196L129.157 41.1415C129.157 41.1415 135.092 42.0881 134.687 43.7108L133.069 62.9126L133.608 69.4034C133.608 69.4034 129.022 68.1864 125.515 69.4034C122.008 70.6204 124.794 43.2506 124.794 43.2506C124.794 43.2506 128.009 40.3204 127.706 39.9196Z" fill="#D0CDE1"/>
    <path d="M122.412 41.3997C122.412 41.3997 118.096 44.5221 117.556 46.5505C117.016 48.5789 115.263 69.9443 115.263 69.9443C115.263 69.9443 116.072 69.5387 116.477 70.2148C116.882 70.8909 123.087 42.4693 122.412 41.3997Z" fill="#D0CDE1"/>
    <path d="M134.282 69.6739L133.316 72.837C133.316 72.837 133.068 78.7339 129.831 77.9226C126.594 77.1112 130.775 70.2148 130.775 70.2148L131.72 68.7273L134.282 69.6739Z" fill="#A0616A"/>
    <path d="M120.593 34.6591C120.593 34.6591 120.111 33.9345 120.297 33.1541C120.407 32.7111 120.451 32.2539 120.426 31.7978C120.426 31.7978 120.816 30.5344 121.205 29.8283C121.594 29.1223 121.409 28.825 122.632 28.602C123.855 28.3791 123.355 26.7812 126.58 28.5091C126.688 28.6614 126.84 28.778 127.015 28.8441C127.189 28.9103 127.38 28.923 127.562 28.8807C128.229 28.7507 128.47 29.6797 128.47 29.6797C128.47 29.6797 128.915 29.4195 129.082 29.7911C129.249 30.1628 130.438 29.5681 130.438 32.0764C130.438 34.5847 129.084 36.8253 129.084 36.8253C129.084 36.8253 129.184 32.606 126.978 32.1787C124.773 31.7513 122.4 30.5065 121.826 32.1044C121.516 33.0012 121.102 33.8586 120.593 34.6591Z" fill="#2F2E41"/>
    <path d="M129.133 35.6623C129.373 35.6623 129.568 35.402 129.568 35.0809C129.568 34.7597 129.373 34.4994 129.133 34.4994C128.893 34.4994 128.698 34.7597 128.698 35.0809C128.698 35.402 128.893 35.6623 129.133 35.6623Z" fill="#A0616A"/>
    <path d="M133.608 42.7642C133.608 42.7642 135.766 42.2233 136.441 45.8744C137.115 49.5254 137.925 59.9377 137.925 59.9377L134.687 70.8909C134.687 70.8909 131.45 69.133 130.775 69.4034L133.323 59.8943L131.18 50.2016C131.18 50.2016 133.069 42.7642 133.608 42.7642Z" fill="#D0CDE1"/>
    <path opacity="0.15" d="M130.47 50.3865L133.303 59.8522L130.47 69.4531L132.089 59.8522L130.47 50.3865Z" fill="black"/>
</svg>
